<?xml version="1.0" standalone="no"?><svg xmlns="http://www.w3.org/2000/svg" viewBox="0 0 1440 320"><path fill="#eaeaea" fill-opacity="0.9" d="M0,224L24,202.7C48,181,96,139,144,144C192,149,240,203,288,192C336,181,384,107,432,85.3C480,64,528,96,576,122.7C624,149,672,171,720,181.3C768,192,816,192,864,208C912,224,960,256,1008,229.3C1056,203,1104,117,1152,106.7C1200,96,1248,160,1296,186.7C1344,213,1392,203,1416,197.3L1440,192L1440,0L1416,0C1392,0,1344,0,1296,0C1248,0,1200,0,1152,0C1104,0,1056,0,1008,0C960,0,912,0,864,0C816,0,768,0,720,0C672,0,624,0,576,0C528,0,480,0,432,0C384,0,336,0,288,0C240,0,192,0,144,0C96,0,48,0,24,0L0,0Z"></path></svg>