<?xml version="1.0" encoding="utf-8"?>
<!-- Generator: Adobe Illustrator 19.0.0, SVG Export Plug-In . SVG Version: 6.00 Build 0)  -->
<svg version="1.1" id="Layer_1" xmlns="http://www.w3.org/2000/svg" xmlns:xlink="http://www.w3.org/1999/xlink" x="0px" y="0px"
	 width="1400px" height="1400px" viewBox="0 0 1400 1400" enable-background="new 0 0 1400 1400" xml:space="preserve">
<g id="XMLID_1_">
	<rect id="XMLID_208_" fill-rule="evenodd" clip-rule="evenodd" fill="#83868D" width="1400" height="1400"/>
	<path id="XMLID_207_" fill-rule="evenodd" clip-rule="evenodd" fill="#E2BE8C" d="M449.1,1169.5l-374-216.2l-0.6,29.2
		c0,0.2,346.9,199.8,374.7,215.9V1169.5z"/>
	<polygon id="XMLID_206_" fill-rule="evenodd" clip-rule="evenodd" fill="#D2A764" points="1325.6,664.6 1172.4,752.7 449.1,1169.5 
		449.1,1198.4 1184.9,774.4 1212.6,758.5 1324.9,693.9 	"/>
	<polygon id="XMLID_205_" fill-rule="evenodd" clip-rule="evenodd" fill="#FDD8A3" points="449.1,1169.5 1172.4,752.7 1325.6,664.6 
		949,448.7 75.1,953.3 	"/>
	<polygon id="XMLID_204_" fill-rule="evenodd" clip-rule="evenodd" fill="#5F636C" points="395.7,724.3 424.9,741.1 395.7,758 
		366.6,741.1 	"/>
	<polygon id="XMLID_203_" fill-rule="evenodd" clip-rule="evenodd" fill="#6F737E" points="395.7,839.8 366.6,822.9 366.6,741.1 
		395.7,758 	"/>
	<polygon id="XMLID_202_" fill-rule="evenodd" clip-rule="evenodd" fill="#353840" points="424.9,822.9 395.7,839.8 395.7,758 
		424.9,741.1 	"/>
	<polygon id="XMLID_201_" fill-rule="evenodd" clip-rule="evenodd" fill="#464B54" points="422.9,821.8 422.9,744.6 397.8,759.2 
		397.8,836.3 	"/>
	<polygon id="XMLID_200_" fill-rule="evenodd" clip-rule="evenodd" fill="#353840" points="424.9,822.9 395.7,839.8 395.7,826.5 
		424.9,809.7 	"/>
	<path id="XMLID_199_" fill-rule="evenodd" clip-rule="evenodd" fill="#5F636C" d="M417.7,776.6c-4,7-10.6,10.7-14.6,8.4
		c-4.1-2.3-4.1-9.9-0.1-16.8c4-7,10.6-10.7,14.6-8.4C421.7,762.1,421.7,769.7,417.7,776.6"/>
	<path id="XMLID_198_" fill-rule="evenodd" clip-rule="evenodd" fill="#5F636C" d="M415.7,800.6c-2.9,5.1-7.7,7.8-10.7,6.1
		c-3-1.7-3-7.2,0-12.3c2.9-5.1,7.7-7.8,10.7-6.1C418.6,790,418.7,795.5,415.7,800.6"/>
	<path id="XMLID_197_" fill-rule="evenodd" clip-rule="evenodd" fill="#5F636C" d="M403.4,829.6c-0.7,1.2-1.8,1.9-2.5,1.5
		c-0.7-0.4-0.7-1.7,0-2.9c0.7-1.2,1.8-1.9,2.5-1.5C404.1,827.1,404.1,828.4,403.4,829.6"/>
	<path id="XMLID_196_" fill-rule="evenodd" clip-rule="evenodd" fill="#5F636C" d="M408.7,826.6c-0.7,1.2-1.8,1.9-2.5,1.5
		c-0.7-0.4-0.7-1.7,0-2.9c0.7-1.2,1.8-1.9,2.5-1.5C409.4,824,409.4,825.3,408.7,826.6"/>
	<path id="XMLID_195_" fill-rule="evenodd" clip-rule="evenodd" fill="#5F636C" d="M414,823.5c-0.7,1.2-1.8,1.9-2.5,1.5
		c-0.7-0.4-0.7-1.7,0-2.9c0.7-1.2,1.8-1.9,2.5-1.5C414.7,821,414.7,822.3,414,823.5"/>
	<path id="XMLID_194_" fill-rule="evenodd" clip-rule="evenodd" fill="#5F636C" d="M420.7,819.7c-1,1.7-2.6,2.7-3.7,2.1
		c-1-0.6-1-2.5,0-4.2c1-1.7,2.6-2.7,3.7-2.1C421.7,816.1,421.7,818,420.7,819.7"/>
	<polygon id="XMLID_193_" fill-rule="evenodd" clip-rule="evenodd" fill="#5F636C" points="811.3,481 840.5,497.8 811.3,514.7 
		782.1,497.8 	"/>
	<polygon id="XMLID_192_" fill-rule="evenodd" clip-rule="evenodd" fill="#6F737E" points="811.3,596.4 782.1,579.6 782.1,497.8 
		811.3,514.7 	"/>
	<polygon id="XMLID_191_" fill-rule="evenodd" clip-rule="evenodd" fill="#353840" points="840.5,579.6 811.3,596.4 811.3,514.7 
		840.5,497.8 	"/>
	<polygon id="XMLID_190_" fill-rule="evenodd" clip-rule="evenodd" fill="#464B54" points="838.5,578.4 838.5,501.3 813.3,515.9 
		813.3,593 	"/>
	<polygon id="XMLID_189_" fill-rule="evenodd" clip-rule="evenodd" fill="#353840" points="840.5,579.6 811.3,596.4 811.3,583.2 
		840.5,566.3 	"/>
	<path id="XMLID_188_" fill-rule="evenodd" clip-rule="evenodd" fill="#5F636C" d="M833.2,533.3c-4,7-10.6,10.7-14.6,8.4
		c-4.1-2.3-4.1-9.9-0.1-16.8c4-7,10.6-10.7,14.6-8.4C837.2,518.8,837.2,526.3,833.2,533.3"/>
	<path id="XMLID_187_" fill-rule="evenodd" clip-rule="evenodd" fill="#5F636C" d="M831.3,557.3c-2.9,5.1-7.7,7.8-10.7,6.1
		c-3-1.7-3-7.2,0-12.3c2.9-5.1,7.7-7.8,10.7-6.1C834.2,546.7,834.2,552.2,831.3,557.3"/>
	<path id="XMLID_186_" fill-rule="evenodd" clip-rule="evenodd" fill="#5F636C" d="M819,586.3c-0.7,1.2-1.8,1.9-2.5,1.5
		c-0.7-0.4-0.7-1.7,0-2.9c0.7-1.2,1.8-1.9,2.5-1.5C819.7,583.8,819.7,585.1,819,586.3"/>
	<path id="XMLID_185_" fill-rule="evenodd" clip-rule="evenodd" fill="#5F636C" d="M824.3,583.2c-0.7,1.2-1.8,1.9-2.5,1.5
		c-0.7-0.4-0.7-1.7,0-2.9c0.7-1.2,1.8-1.9,2.5-1.5C825,580.7,825,582,824.3,583.2"/>
	<path id="XMLID_184_" fill-rule="evenodd" clip-rule="evenodd" fill="#5F636C" d="M829.6,580.2c-0.7,1.2-1.8,1.9-2.5,1.5
		c-0.7-0.4-0.7-1.7,0-2.9c0.7-1.2,1.8-1.9,2.5-1.5C830.3,577.7,830.3,579,829.6,580.2"/>
	<path id="XMLID_183_" fill-rule="evenodd" clip-rule="evenodd" fill="#5F636C" d="M836.3,576.4c-1,1.7-2.6,2.7-3.7,2.1
		c-1-0.6-1-2.5,0-4.2c1-1.7,2.6-2.7,3.7-2.1S837.3,574.7,836.3,576.4"/>
	<path fill-rule="evenodd" clip-rule="evenodd" fill="#445459" d="M435,611.4c0.1,0.2,0.2,0.3,0.3,0.5
		C435.2,611.7,435.1,611.5,435,611.4 M434.3,610.1c0.2,0.3,0.4,0.7,0.6,1C434.6,610.8,434.5,610.4,434.3,610.1z M433.7,609
		c0.1,0.3,0.3,0.5,0.4,0.8C434,609.5,433.9,609.3,433.7,609z M433.5,608.5c0.1,0.2,0.2,0.4,0.3,0.5
		C433.6,608.8,433.6,608.7,433.5,608.5z M430.5,601c0.8,2.6,1.8,5.1,2.9,7.5C432.3,606.1,431.3,603.6,430.5,601z M430.1,599.5
		c0.1,0.5,0.3,1,0.4,1.5C430.4,600.5,430.3,600,430.1,599.5z M664.6,650.9c0.6-0.2,1.1-0.4,1.7-0.5
		C665.7,650.5,665.2,650.7,664.6,650.9z M438.2,616.5c1.8,2.6,3.8,5.1,6,7.4C442,621.5,440,619,438.2,616.5z M437,614.7
		c-0.6-0.9-1.2-1.8-1.7-2.8C435.8,612.8,436.4,613.8,437,614.7L437,614.7z M452.7,767.6L452.7,767.6
		C549.4,711.8,549.1,711.9,452.7,767.6z M768.2,585.4L547.3,712.9l30.2-17.4l47.5-27.4l17.1-9.9l3.4-2l0,0L768.2,585.4z M583.9,753
		c23.3,2.6,49.1-1.6,68.4-12C633,751.4,607.2,755.6,583.9,753z M580.4,752.6c1.2,0.2,2.3,0.3,3.5,0.4
		C582.7,752.9,581.6,752.8,580.4,752.6z M580.4,752.6c0.2,0.1-31.1-9.9-30.9-9.7C549.3,742.7,580.6,752.7,580.4,752.6 M535.6,731.9
		c3.2,3.8,7.5,7.3,12.9,10.4C543.1,739.2,538.8,735.7,535.6,731.9z M437,786.4l-7.4-5.7V597.1v-33.4v-0.5l345.4-199l8.8,3.5l0.1-0.1
		v0.2v218.3L682.1,645c-5.2,1.9-10.5,3.7-15.8,5.4c5.3-1.7,10.6-3.5,15.8-5.4l-38.6,22.3v4.8c4.6,1.4,9,3.3,13,5.4
		c14.7,7.8,22,18.6,22,29.6v12.4c0,11.1-7.4,22.4-22,31.6c-29.3,18.2-76.8,20.3-106.1,4.8c-11.5-6.1-18.6-14.1-21-22.6l-92.4,53.3
		l-0.1,0.1V786.4z"/>
	<path id="XMLID_166_" fill-rule="evenodd" clip-rule="evenodd" fill="#6F737E" d="M678.6,707v12.4c0,11.1-7.4,22.4-22,31.6
		c-29.3,18.2-76.8,20.3-106.1,4.8c-11.5-6.1-18.6-14.1-21-22.6l4.9-2.8c3.6,4.9,9,9.3,16.1,13c29.3,15.6,76.8,13.4,106.1-4.8
		c11.9-7.4,19-16.2,21.2-25.3C678.3,711.2,678.6,709.1,678.6,707"/>
	<path id="XMLID_165_" fill-rule="evenodd" clip-rule="evenodd" fill="#5F636C" d="M678.6,707c0,2-0.3,4.2-0.8,6.2
		c-2.2,9.1-9.3,17.9-21.2,25.3c-29.3,18.2-76.8,20.4-106.1,4.8c-7.1-3.7-12.5-8.2-16.1-13l43.2-25v18.2l-0.2,0.4l9.5,5.5l0.1-0.3
		l56.5-32.7v-24.5c4.6,1.4,9,3.3,13,5.4C671.2,685.2,678.6,696,678.6,707"/>
	<polygon id="XMLID_164_" fill-rule="evenodd" clip-rule="evenodd" fill="#464B54" points="643.5,672.1 643.5,696.6 587,729.3 
		587,718.1 587,699.9 638,670.5 643.5,667.3 	"/>
	<polygon id="XMLID_163_" fill-rule="evenodd" clip-rule="evenodd" fill="#6F737E" points="587,718.1 587,729.3 586.8,729.5 
		577.3,724 577.5,723.6 577.5,705.4 587,699.9 	"/>
	<path fill-rule="evenodd" clip-rule="evenodd" fill="#6F737E" d="M435,611.4c0.1,0.2,0.2,0.3,0.3,0.5
		C435.2,611.7,435.1,611.5,435,611.4 M434.3,610.1c0.2,0.3,0.4,0.7,0.6,1C434.6,610.8,434.5,610.4,434.3,610.1z M433.7,609
		c0.1,0.3,0.3,0.5,0.4,0.8C434,609.5,433.9,609.3,433.7,609z M433.5,608.5c0.1,0.2,0.2,0.4,0.3,0.5
		C433.6,608.8,433.6,608.7,433.5,608.5z M430.5,601c0.8,2.6,1.8,5.1,2.9,7.5C432.3,606.1,431.3,603.6,430.5,601z M430.1,599.5
		c0.1,0.5,0.3,1,0.4,1.5C430.4,600.5,430.3,600,430.1,599.5z M437,786.4l-7.4-5.7V597.1v-33.4l7.7,4.2L437,568v46.7
		c-0.6-0.9-1.2-1.8-1.7-2.8c0.5,0.9,1.1,1.9,1.7,2.8v167.7V786.4z"/>
	<path fill-rule="evenodd" clip-rule="evenodd" fill="#464B54" d="M664.6,650.9c0.6-0.2,1.1-0.4,1.7-0.5
		C665.7,650.5,665.2,650.7,664.6,650.9 M452.7,631.7v135.9l75.8-43.7l1.7-1l47.4-27.3l47.5-27.4l17.1-9.9l3.4-2l0,0l122.6-70.8
		V386.7L452.7,568.8V631.7z M445.8,625.5c0.3,0.3,0.5,0.5,0.8,0.8C446.3,626,446,625.8,445.8,625.5z M438.2,616.5
		c2.2,3.2,4.8,6.2,7.6,9.1C442.9,622.7,440.4,619.7,438.2,616.5z M437,782.4V614.7V568l0.3-0.1l343.3-198.3l3.2-1.8l0.1-0.1v0.2
		v218.3L682.1,645c-5.2,1.9-10.5,3.7-15.8,5.4c5.3-1.7,10.6-3.5,15.8-5.4l-38.6,22.3l-5.5,3.2l-51,29.5l-9.4,5.5l-43.2,25l-4.9,2.8
		l-92.4,53.3l-0.1,0.1v-0.2V782.4z"/>
	<polygon id="XMLID_150_" fill-rule="evenodd" clip-rule="evenodd" fill="#5F636C" points="783.7,367.8 780.5,369.6 437.2,567.9 
		429.5,563.7 429.5,563.2 774.9,364.2 	"/>
	<polygon id="XMLID_149_" fill-rule="evenodd" clip-rule="evenodd" fill="#FFFFFF" points="444.2,772.5 444.2,573.7 776.4,381.9 
		776.4,580.7 	"/>
	<polygon id="XMLID_148_" fill-rule="evenodd" clip-rule="evenodd" fill="#EDEEEE" points="444.2,573.7 776.4,381.9 776.4,580.7 	
		"/>
	<path id="XMLID_147_" fill-rule="evenodd" clip-rule="evenodd" fill="#575C65" d="M414.5,912.4c-11.8,6.8-11.8,17.9-0.1,24.7
		l158.1,91.7c11.7,6.8,30.8,6.8,42.6,0l453.8-262c11.8-6.8,11.9-17.9,0.1-24.7l-158.1-91.7c-11.7-6.8-30.8-6.8-42.6,0L414.5,912.4z"
		/>
	<path id="XMLID_146_" fill-rule="evenodd" clip-rule="evenodd" fill="#83868D" d="M414.5,906.7c-11.8,6.8-11.8,17.9-0.1,24.7
		l158.1,91.7c11.7,6.8,30.8,6.8,42.6,0l453.8-262c11.8-6.8,11.9-17.9,0.1-24.7l-158.1-91.7c-11.7-6.8-30.8-6.8-42.6,0L414.5,906.7z"
		/>
	<polygon id="XMLID_145_" fill-rule="evenodd" clip-rule="evenodd" fill="#6F737E" points="1031.6,655.7 854.8,553.6 854.8,336.9 
		1031.6,439 	"/>
	<polygon id="XMLID_144_" fill-rule="evenodd" clip-rule="evenodd" fill="#4B4C50" points="1016.2,629 1016.2,447.9 870.2,363.5 
		870.2,544.7 	"/>
	<polygon id="XMLID_143_" fill-rule="evenodd" clip-rule="evenodd" fill="#5F636C" points="1031.6,439 854.8,336.9 963.1,274.3 
		1139.9,376.4 	"/>
	<polygon id="XMLID_142_" fill-rule="evenodd" clip-rule="evenodd" fill="#464B54" points="1140,593.1 1031.6,655.7 1031.6,439 
		1139.9,376.4 	"/>
	<path fill-rule="evenodd" clip-rule="evenodd" fill="#393F47" d="M1134.1,456.2l-96.7,55.8l0-31.8l96.7-55.8V456.2z M1134.1,490.9
		l-96.7,55.8l0-31.8l96.7-55.8V490.9z M1134.1,525.5l-5,16l-79.4,45.9l-12.3-6.1l0-31.8l96.7-55.8V525.5z M1134.1,421.6l-96.7,55.8
		l0-31.8l96.7-55.8V421.6z"/>
	<path fill-rule="evenodd" clip-rule="evenodd" fill="#595F6B" d="M1037.4,480.3l93-53.7v31.8l-93,53.7L1037.4,480.3z M1037.4,514.9
		l93-53.7V493l-93,53.7L1037.4,514.9z M1130.5,527.6l-4.1,13.2v0l-80.2,44.8l-8.7-4.3l0-31.8l93-53.7V527.6z M1130.5,423.7l-93,53.7
		l0-31.8l93-53.7V423.7z"/>
	<path id="XMLID_133_" fill-rule="evenodd" clip-rule="evenodd" fill="#4C69B8" d="M1094,540.8c0,1.4-1,3-2.1,3.7l-10.7,6.2
		c-1.2,0.7-2.1,0.1-2.1-1.2l0-13.6c0-1.4,1-3,2.1-3.7l10.7-6.2c1.2-0.7,2.1-0.1,2.1,1.2L1094,540.8z"/>
	<path id="XMLID_132_" fill-rule="evenodd" clip-rule="evenodd" fill="#393F47" d="M1092.3,540.3c0,1.1-0.8,2.3-1.7,2.9l-8.3,4.8
		c-0.9,0.5-1.6,0.1-1.6-1l0-10.5c0-1.1,0.7-2.3,1.6-2.9l8.3-4.8c0.9-0.5,1.7-0.1,1.7,1V540.3z"/>
	<polygon id="XMLID_131_" fill-rule="evenodd" clip-rule="evenodd" fill="#44454A" points="1016.2,629 1016.2,447.9 870.2,363.5 	
		"/>
	<polygon id="XMLID_130_" fill-rule="evenodd" clip-rule="evenodd" fill="#5A5D66" points="1023.4,420.9 1031.6,439 979.4,408.9 
		987.7,400.3 	"/>
	<polygon id="XMLID_129_" fill-rule="evenodd" clip-rule="evenodd" fill="#52565F" points="1023.4,420.9 1131.7,358.5 1139.9,376.6 
		1031.6,439 	"/>
	<polygon id="XMLID_128_" fill-rule="evenodd" clip-rule="evenodd" fill="#6F737E" points="987.7,400.3 1096.1,337.9 1131.7,358.5 
		1023.4,420.9 	"/>
	<path id="XMLID_127_" fill-rule="evenodd" clip-rule="evenodd" fill="#324855" d="M1056.4,375.8c0.6,0.4,0.6,1,0,1.3
		c-0.6,0.4-1.6,0.4-2.3,0c-0.6-0.4-0.6-1,0-1.3C1054.8,375.4,1055.8,375.4,1056.4,375.8"/>
	<path id="XMLID_126_" fill-rule="evenodd" clip-rule="evenodd" fill="#44454A" d="M1072.9,371.6c0.7,0.4,0.7,1,0,1.4l-5.4,3.1
		c-0.7,0.4-1.8,0.4-2.4,0c-0.7-0.4-0.7-1,0-1.4l5.4-3.1C1071.2,371.2,1072.3,371.2,1072.9,371.6"/>
	<path id="XMLID_125_" fill-rule="evenodd" clip-rule="evenodd" fill="#44454A" d="M1063.6,377.1c0.7,0.4,0.7,1,0,1.4l-5.4,3.1
		c-0.7,0.4-1.8,0.4-2.4,0c-0.7-0.4-0.7-1,0-1.4l5.4-3.1C1061.8,376.7,1062.9,376.7,1063.6,377.1"/>
	<path id="XMLID_124_" fill-rule="evenodd" clip-rule="evenodd" fill="#44454A" d="M1054.3,382.6c0.7,0.4,0.7,1,0,1.4l-5.4,3.1
		c-0.7,0.4-1.8,0.4-2.4,0c-0.7-0.4-0.7-1,0-1.4l5.4-3.1C1052.5,382.2,1053.6,382.2,1054.3,382.6"/>
	<path fill-rule="evenodd" clip-rule="evenodd" fill="#383D43" d="M1040.1,609.9l-0.1,4.3l93.5-53.8l-0.1-4.2L1040.1,609.9z
		 M1040.1,617.5l-0.1,4.3l93.5-53.8l-0.1-4.2L1040.1,617.5z M1040.1,625.1l-0.1,4.3l93.5-53.8l-0.1-4.2L1040.1,625.1z M1040.1,632.6
		l-0.1,4.3l93.5-53.8l-0.1-4.2L1040.1,632.6z M1040.1,640.2l-0.1,4.3l93.5-53.8l-0.1-4.2L1040.1,640.2z M1040.1,602.3l-0.1,4.3
		l93.5-53.8l-0.1-4.2L1040.1,602.3z"/>
	<path fill-rule="evenodd" clip-rule="evenodd" fill="#5A5D66" d="M1040.1,612.6l93.5-53.8l0-2.6l-93.4,53.8L1040.1,612.6z
		 M1040.1,620.1l93.5-53.8l0-2.6l-93.4,53.8L1040.1,620.1z M1040.1,627.7l93.5-53.8l0-2.6l-93.4,53.8L1040.1,627.7z M1040.1,635.3
		l93.5-53.8l0-2.6l-93.4,53.8L1040.1,635.3z M1040.1,642.9l93.5-53.8l0-2.6l-93.4,53.8L1040.1,642.9z M1040.1,602.3l0,2.6l93.5-53.8
		l0-2.6L1040.1,602.3z"/>
	<path id="XMLID_111_" fill-rule="evenodd" clip-rule="evenodd" fill="#6F737E" d="M906.1,785l-0.1-7.7l-12.5,0.1
		c-47-27.1-43.5-24.4-90.5-51.4c-0.7-0.4-1.8-0.4-2.4-0.1c-67,39.4-133.9,78.8-200.9,118.2l-13,0.1l0.1,8h0c0.1,0.2,0.2,0.4,0.5,0.6
		c51,29.5,50.3,29.6,102.1,58.6c0.7,0.4,1.8,0.4,2.4,0c71.6-41.7,142.6-83.8,213.7-125.7C906,785.6,906.1,785.3,906.1,785"/>
	<path id="XMLID_110_" fill-rule="evenodd" clip-rule="evenodd" fill="#5F636C" d="M691.9,903.8c71.6-41.7,142.6-83.7,213.7-125.7
		c0.7-0.4,0.6-1-0.1-1.4c-50.8-29.5-51.4-29-102.5-58.4c-0.7-0.4-1.8-0.4-2.4-0.1c-71.1,41.9-142.2,83.7-213.4,125.6
		c-0.6,0.4-0.5,1,0.2,1.4c51,29.5,50.3,29.6,102.1,58.6C690.2,904.2,691.3,904.2,691.9,903.8"/>
	<path id="XMLID_109_" fill-rule="evenodd" clip-rule="evenodd" fill="#44454A" d="M736.8,785c-3.8,2.2-5.7,3.3-9.5,5.6
		c-0.4,0.2-0.3,0.6,0.1,0.8c4.2,2.4,6.3,3.7,10.5,6.1c0.4,0.2,1,0.2,1.4,0c3.8-2.2,5.7-3.3,9.4-5.6c0.4-0.2,0.3-0.6-0.1-0.8
		c-4.2-2.4-6.3-3.7-10.5-6.1C737.7,784.8,737.1,784.8,736.8,785"/>
	<path id="XMLID_108_" fill-rule="evenodd" clip-rule="evenodd" fill="#44454A" d="M748.7,778c-3.8,2.2-5.7,3.3-9.5,5.6
		c-0.4,0.2-0.3,0.6,0.1,0.8c4.2,2.4,6.3,3.7,10.5,6.1c0.4,0.2,1,0.2,1.4,0c3.8-2.2,5.7-3.3,9.5-5.6c0.4-0.2,0.3-0.6-0.1-0.8
		c-4.2-2.4-6.3-3.7-10.5-6.1C749.7,777.8,749.1,777.8,748.7,778"/>
	<path id="XMLID_107_" fill-rule="evenodd" clip-rule="evenodd" fill="#44454A" d="M760.7,771c-3.8,2.2-5.7,3.3-9.5,5.6
		c-0.4,0.2-0.3,0.6,0.1,0.8c4.2,2.4,6.3,3.7,10.5,6.1c0.4,0.2,1,0.2,1.4,0c3.8-2.2,5.7-3.3,9.5-5.6c0.4-0.2,0.3-0.6-0.1-0.8
		c-4.2-2.4-6.3-3.7-10.5-6.1C761.6,770.8,761,770.8,760.7,771"/>
	<path id="XMLID_106_" fill-rule="evenodd" clip-rule="evenodd" fill="#44454A" d="M724.9,792c-3.8,2.2-5.7,3.3-9.4,5.6
		c-0.4,0.2-0.3,0.6,0.1,0.8c4.2,2.4,6.3,3.7,10.5,6.1c0.4,0.2,1,0.2,1.4,0c3.8-2.2,5.7-3.3,9.4-5.6c0.4-0.2,0.3-0.6-0.1-0.8
		c-4.2-2.4-6.3-3.6-10.5-6.1C725.8,791.8,725.2,791.8,724.9,792"/>
	<path id="XMLID_105_" fill-rule="evenodd" clip-rule="evenodd" fill="#44454A" d="M712.9,799c-3.8,2.2-5.7,3.3-9.4,5.6
		c-0.4,0.2-0.3,0.6,0.1,0.8c4.2,2.4,6.3,3.7,10.6,6.1c0.4,0.2,1,0.2,1.4,0c3.8-2.2,5.7-3.3,9.4-5.5c0.4-0.2,0.3-0.6-0.1-0.8
		c-4.2-2.4-6.3-3.6-10.5-6.1C713.9,798.8,713.3,798.8,712.9,799"/>
	<path id="XMLID_104_" fill-rule="evenodd" clip-rule="evenodd" fill="#44454A" d="M772.6,763.9c-3.8,2.2-5.7,3.4-9.5,5.6
		c-0.4,0.2-0.3,0.6,0.1,0.8c4.2,2.4,6.3,3.7,10.5,6.1c0.4,0.2,1,0.2,1.4,0c3.8-2.2,5.7-3.4,9.5-5.6c0.4-0.2,0.3-0.6-0.1-0.8
		c-4.2-2.4-6.3-3.7-10.5-6.1C773.6,763.7,773,763.7,772.6,763.9"/>
	<path id="XMLID_103_" fill-rule="evenodd" clip-rule="evenodd" fill="#44454A" d="M790,799.1c3.8-2.2,5.7-3.3,9.4-5.6
		c0.4-0.2,0.3-0.6-0.1-0.8c-4.2-2.4-6.2-3.6-10.4-6c-0.4-0.2-1-0.2-1.4,0c-3.8,2.2-5.7,3.4-9.5,5.6c-0.4,0.2-0.3,0.6,0.1,0.8
		c4.2,2.4,6.2,3.6,10.4,6C789,799.3,789.7,799.3,790,799.1"/>
	<path id="XMLID_102_" fill-rule="evenodd" clip-rule="evenodd" fill="#44454A" d="M810.1,742.7c-0.4-0.2-1-0.2-1.4,0
		c-11.1,6.5-22.2,13-33.3,19.5c-0.4,0.2-0.3,0.6,0.1,0.8c4.2,2.4,6.3,3.7,10.5,6.1c0.4,0.2,1,0.2,1.4,0
		c11.1-6.5,22.2-13.1,33.3-19.6c0.4-0.2,0.3-0.6-0.1-0.8C816.4,746.4,814.3,745.2,810.1,742.7"/>
	<path id="XMLID_101_" fill-rule="evenodd" clip-rule="evenodd" fill="#44454A" d="M801.9,792.1c3.8-2.2,5.7-3.4,9.5-5.6
		c0.4-0.2,0.3-0.6-0.1-0.8c-4.1-2.4-6.2-3.6-10.4-6c-0.4-0.2-1-0.2-1.4,0c-3.8,2.2-5.7,3.4-9.5,5.6c-0.4,0.2-0.3,0.6,0.1,0.8
		c4.2,2.4,6.2,3.6,10.4,6C800.9,792.3,801.5,792.3,801.9,792.1z"/>
	<path id="XMLID_100_" fill="none" stroke="#44454A" stroke-width="0.216" stroke-miterlimit="22.9256" d="M801.9,792.1
		c3.8-2.2,5.7-3.4,9.5-5.6c0.4-0.2,0.3-0.6-0.1-0.8c-4.1-2.4-6.2-3.6-10.4-6c-0.4-0.2-1-0.2-1.4,0c-3.8,2.2-5.7,3.4-9.5,5.6
		c-0.4,0.2-0.3,0.6,0.1,0.8c4.2,2.4,6.2,3.6,10.4,6C800.9,792.3,801.5,792.3,801.9,792.1z"/>
	<path id="XMLID_99_" fill-rule="evenodd" clip-rule="evenodd" fill="#44454A" d="M814.1,784.9c3.8-2.2,5.7-3.4,9.5-5.6
		c0.4-0.2,0.3-0.6-0.1-0.8c-4.1-2.4-6.2-3.6-10.4-6c-0.4-0.2-1-0.2-1.4,0c-3.8,2.2-5.7,3.4-9.5,5.6c-0.4,0.2-0.3,0.6,0.1,0.8
		c4.2,2.4,6.2,3.6,10.4,6C813.1,785.1,813.7,785.2,814.1,784.9"/>
	<path id="XMLID_98_" fill-rule="evenodd" clip-rule="evenodd" fill="#44454A" d="M826.2,777.8c3.8-2.2,5.7-3.4,9.5-5.6
		c0.4-0.2,0.3-0.6-0.1-0.8c-4.1-2.4-6.2-3.6-10.4-6c-0.4-0.2-1-0.2-1.4,0c-3.8,2.2-5.7,3.4-9.5,5.6c-0.4,0.2-0.3,0.6,0.1,0.8
		c4.2,2.4,6.2,3.6,10.4,6C825.2,778,825.9,778,826.2,777.8"/>
	<path id="XMLID_97_" fill-rule="evenodd" clip-rule="evenodd" fill="#44454A" d="M838.4,770.7c3.8-2.2,5.7-3.4,9.5-5.6
		c0.4-0.2,0.3-0.6-0.1-0.8c-4.1-2.4-6.2-3.6-10.4-6c-0.4-0.2-1-0.2-1.4,0c-3.8,2.2-5.7,3.4-9.5,5.6c-0.4,0.2-0.3,0.6,0.1,0.8
		c4.2,2.4,6.2,3.6,10.4,6C837.4,770.9,838,770.9,838.4,770.7"/>
	<path id="XMLID_96_" fill-rule="evenodd" clip-rule="evenodd" fill="#44454A" d="M641.4,841c-3.8,2.2-5.7,3.3-9.5,5.6
		c-0.4,0.2-0.3,0.6,0.1,0.8c4.3,2.4,6.4,3.6,10.6,6.1c0.4,0.2,1,0.2,1.4,0c3.8-2.2,5.7-3.4,9.5-5.6c0.4-0.2,0.3-0.6-0.1-0.8
		c-4.2-2.4-6.4-3.6-10.6-6.1C642.3,840.8,641.7,840.8,641.4,841"/>
	<path id="XMLID_95_" fill-rule="evenodd" clip-rule="evenodd" fill="#44454A" d="M682,861.9c0.4,0.2,1,0.2,1.4,0
		c3.8-2.2,5.7-3.4,9.5-5.6c0.4-0.2,0.3-0.6-0.1-0.8c-4.2-2.4-6.4-3.6-10.6-6c-0.4-0.2-1-0.2-1.4,0c-3.8,2.2-5.7,3.3-9.5,5.6
		c-0.4,0.2-0.3,0.6,0.1,0.8C675.6,858.3,677.7,859.5,682,861.9"/>
	<path id="XMLID_94_" fill-rule="evenodd" clip-rule="evenodd" fill="#44454A" d="M662.9,857.3c0.4,0.2,1,0.2,1.4,0
		c3.8-2.2,5.7-3.4,9.5-5.6c0.4-0.2,0.3-0.6-0.1-0.8c-4.2-2.4-6.4-3.6-10.6-6c-0.4-0.2-1-0.2-1.4,0c-3.8,2.2-5.7,3.3-9.5,5.6
		c-0.4,0.2-0.3,0.6,0.1,0.8C656.5,853.7,658.7,854.9,662.9,857.3"/>
	<path id="XMLID_93_" fill-rule="evenodd" clip-rule="evenodd" fill="#44454A" d="M702.3,865.8c0.4,0.2,1,0.2,1.4,0
		c3.8-2.2,5.7-3.3,9.4-5.6c0.4-0.2,0.3-0.6-0.1-0.8c-4.2-2.4-6.4-3.6-10.6-6c-0.4-0.2-1-0.2-1.4,0c-3.8,2.2-5.7,3.3-9.5,5.6
		c-0.4,0.2-0.3,0.6,0.1,0.8C695.9,862.2,698,863.4,702.3,865.8"/>
	<path id="XMLID_92_" fill-rule="evenodd" clip-rule="evenodd" fill="#44454A" d="M715.6,858.8c3.8-2.2,5.6-3.3,9.4-5.5
		c0.4-0.2,0.3-0.6-0.1-0.8c-4.2-2.4-6.4-3.6-10.6-6c-0.4-0.2-1-0.2-1.4,0c-3.8,2.2-5.6,3.3-9.4,5.5c-0.4,0.2-0.3,0.6,0.1,0.8
		c4.2,2.4,6.4,3.6,10.6,6C714.6,859,715.2,859,715.6,858.8"/>
	<path id="XMLID_91_" fill-rule="evenodd" clip-rule="evenodd" fill="#44454A" d="M701,806c-3.8,2.2-5.7,3.3-9.4,5.6
		c-0.4,0.2-0.3,0.6,0.1,0.8c4.2,2.4,6.4,3.7,10.6,6.1c0.4,0.2,1,0.2,1.4,0c3.8-2.2,5.7-3.3,9.4-5.5c0.4-0.2,0.3-0.6-0.1-0.8
		c-4.2-2.4-6.3-3.6-10.6-6.1C702,805.8,701.4,805.8,701,806"/>
	<path id="XMLID_90_" fill-rule="evenodd" clip-rule="evenodd" fill="#44454A" d="M677.2,820c-3.8,2.2-5.7,3.3-9.5,5.6
		c-0.4,0.2-0.3,0.6,0.1,0.8c4.3,2.4,6.4,3.6,10.6,6.1c0.4,0.2,1,0.2,1.4,0c3.8-2.2,5.7-3.3,9.4-5.5c0.4-0.2,0.3-0.6-0.1-0.8
		c-4.2-2.4-6.4-3.6-10.6-6.1C678.2,819.8,677.6,819.8,677.2,820"/>
	<path id="XMLID_89_" fill-rule="evenodd" clip-rule="evenodd" fill="#44454A" d="M689.1,813c-3.8,2.2-5.7,3.3-9.5,5.6
		c-0.4,0.2-0.3,0.6,0.1,0.8c4.2,2.4,6.4,3.6,10.6,6.1c0.4,0.2,1,0.2,1.4,0c3.8-2.2,5.7-3.3,9.4-5.5c0.4-0.2,0.3-0.6-0.1-0.8
		c-4.2-2.4-6.4-3.6-10.6-6.1C690.1,812.8,689.5,812.8,689.1,813"/>
	<path id="XMLID_88_" fill-rule="evenodd" clip-rule="evenodd" fill="#44454A" d="M653.3,834c-3.8,2.2-5.7,3.3-9.5,5.6
		c-0.4,0.2-0.3,0.6,0.1,0.8c4.3,2.4,6.4,3.6,10.6,6.1c0.4,0.2,1,0.2,1.4,0c3.8-2.2,5.7-3.3,9.5-5.6c0.4-0.2,0.3-0.6-0.1-0.8
		c-4.2-2.4-6.4-3.6-10.6-6.1C654.3,833.8,653.7,833.8,653.3,834"/>
	<path id="XMLID_87_" fill-rule="evenodd" clip-rule="evenodd" fill="#44454A" d="M665.3,827c-3.8,2.2-5.7,3.3-9.5,5.6
		c-0.4,0.2-0.3,0.6,0.1,0.8c4.3,2.4,6.4,3.6,10.6,6c0.4,0.2,1,0.2,1.4,0c3.8-2.2,5.7-3.3,9.5-5.6c0.4-0.2,0.3-0.6-0.1-0.8
		c-4.2-2.4-6.4-3.6-10.6-6.1C666.3,826.8,665.6,826.8,665.3,827"/>
	<path id="XMLID_86_" fill-rule="evenodd" clip-rule="evenodd" fill="#44454A" d="M792.8,767.9c-3.8,2.2-5.7,3.4-9.5,5.6
		c-0.4,0.2-0.3,0.6,0.1,0.8c4.2,2.4,6.3,3.6,10.4,6.1c0.4,0.2,1,0.2,1.4,0c3.8-2.2,5.7-3.4,9.5-5.6c0.4-0.2,0.3-0.6-0.1-0.8
		c-4.2-2.4-6.2-3.6-10.4-6.1C793.7,767.7,793.1,767.7,792.8,767.9"/>
	<path id="XMLID_85_" fill-rule="evenodd" clip-rule="evenodd" fill="#44454A" d="M756.9,789c-3.8,2.2-5.7,3.3-9.4,5.6
		c-0.4,0.2-0.3,0.6,0.1,0.8c4.2,2.4,6.3,3.6,10.5,6.1c0.4,0.2,1,0.2,1.4,0c3.8-2.2,5.7-3.3,9.4-5.6c0.4-0.2,0.3-0.6-0.1-0.8
		c-4.2-2.4-6.3-3.6-10.4-6.1C757.9,788.8,757.3,788.8,756.9,789"/>
	<path id="XMLID_84_" fill-rule="evenodd" clip-rule="evenodd" fill="#44454A" d="M745,796c-3.8,2.2-5.7,3.3-9.4,5.6
		c-0.4,0.2-0.3,0.6,0.1,0.8c4.2,2.4,6.3,3.6,10.5,6c0.4,0.2,1,0.2,1.4,0c3.8-2.2,5.7-3.3,9.4-5.5c0.4-0.2,0.3-0.6-0.1-0.8
		c-4.2-2.4-6.3-3.6-10.5-6.1C746,795.8,745.4,795.8,745,796"/>
	<path id="XMLID_83_" fill-rule="evenodd" clip-rule="evenodd" fill="#44454A" d="M768.8,782c-3.8,2.2-5.7,3.3-9.5,5.6
		c-0.4,0.2-0.3,0.6,0.1,0.8c4.2,2.4,6.3,3.6,10.4,6.1c0.4,0.2,1,0.2,1.4,0c3.8-2.2,5.7-3.3,9.4-5.6c0.4-0.2,0.3-0.6-0.1-0.8
		c-4.2-2.4-6.3-3.6-10.4-6.1C769.8,781.8,769.2,781.8,768.8,782"/>
	<path id="XMLID_82_" fill-rule="evenodd" clip-rule="evenodd" fill="#44454A" d="M733.1,803c-3.8,2.2-5.7,3.3-9.4,5.5
		c-0.4,0.2-0.3,0.6,0.1,0.8c4.2,2.4,6.3,3.6,10.5,6c0.4,0.2,1,0.2,1.4,0c3.8-2.2,5.6-3.3,9.4-5.5c0.4-0.2,0.3-0.6-0.1-0.8
		c-4.2-2.4-6.3-3.6-10.5-6C734.1,802.8,733.5,802.8,733.1,803"/>
	<path id="XMLID_81_" fill-rule="evenodd" clip-rule="evenodd" fill="#44454A" d="M721.2,810c-3.8,2.2-5.7,3.3-9.4,5.5
		c-0.4,0.2-0.3,0.6,0.1,0.8c4.2,2.4,6.3,3.6,10.5,6c0.4,0.2,1,0.2,1.4,0c3.8-2.2,5.6-3.3,9.4-5.5c0.4-0.2,0.3-0.6-0.1-0.8
		c-4.2-2.4-6.3-3.6-10.5-6C722.2,809.8,721.6,809.8,721.2,810"/>
	<path id="XMLID_80_" fill-rule="evenodd" clip-rule="evenodd" fill="#44454A" d="M780.8,774.9c-3.8,2.2-5.7,3.4-9.5,5.6
		c-0.4,0.2-0.3,0.6,0.1,0.8c4.2,2.4,6.3,3.6,10.4,6.1c0.4,0.2,1,0.2,1.4,0c3.8-2.2,5.7-3.3,9.5-5.6c0.4-0.2,0.3-0.6-0.1-0.8
		c-4.2-2.4-6.2-3.6-10.4-6.1C781.7,774.8,781.1,774.7,780.8,774.9"/>
	<path id="XMLID_79_" fill-rule="evenodd" clip-rule="evenodd" fill="#44454A" d="M851.7,765.3c4.2,2.4,6.2,3.6,10.4,6
		c0.4,0.2,1,0.2,1.4,0c3.9-2.3,5.8-3.5,9.7-5.8c0.4-0.2,0.4-0.6,0-0.8c-4.2-2.4-6.3-3.6-10.4-6c-0.4-0.2-1-0.2-1.4,0
		c-3.9,2.3-5.8,3.4-9.7,5.7C851.3,764.8,851.3,765.1,851.7,765.3"/>
	<path id="XMLID_78_" fill-rule="evenodd" clip-rule="evenodd" fill="#44454A" d="M727.4,851.8c3.8-2.2,5.6-3.3,9.4-5.5
		c0.4-0.2,0.3-0.6-0.1-0.8c-4.2-2.4-6.3-3.6-10.6-6c-0.4-0.2-1-0.2-1.4,0c-3.8,2.2-5.6,3.3-9.4,5.5c-0.4,0.2-0.3,0.6,0.1,0.8
		c4.2,2.4,6.4,3.6,10.6,6C726.4,852,727,852,727.4,851.8"/>
	<path id="XMLID_77_" fill-rule="evenodd" clip-rule="evenodd" fill="#44454A" d="M778.1,806.1c3.8-2.2,5.7-3.3,9.4-5.6
		c0.4-0.2,0.3-0.6-0.1-0.8c-4.2-2.4-6.2-3.6-10.4-6c-0.4-0.2-1-0.2-1.4,0c-3.8,2.2-5.7,3.3-9.4,5.6c-0.4,0.2-0.3,0.6,0.1,0.8
		c4.2,2.4,6.3,3.6,10.4,6C777.2,806.3,777.8,806.3,778.1,806.1"/>
	<path id="XMLID_76_" fill-rule="evenodd" clip-rule="evenodd" fill="#44454A" d="M807.1,773.3c3.8-2.2,5.7-3.4,9.5-5.6
		c0.4-0.2,0.3-0.6-0.1-0.8c-4.2-2.4-6.2-3.6-10.4-6c-0.4-0.2-1-0.2-1.4,0c-3.8,2.2-5.7,3.4-9.5,5.6c-0.4,0.2-0.3,0.6,0.1,0.8
		c4.2,2.4,6.3,3.6,10.4,6C806.1,773.5,806.7,773.5,807.1,773.3"/>
	<path id="XMLID_75_" fill-rule="evenodd" clip-rule="evenodd" fill="#44454A" d="M819.7,765.7c3.8-2.2,5.7-3.4,9.5-5.6
		c0.4-0.2,0.3-0.6-0.1-0.8c-4.2-2.4-6.2-3.6-10.4-6c-0.4-0.2-1-0.2-1.4,0c-3.8,2.2-5.7,3.4-9.5,5.6c-0.4,0.2-0.3,0.6,0.1,0.8
		c4.2,2.4,6.3,3.6,10.4,6C818.8,765.9,819.4,765.9,819.7,765.7"/>
	<path id="XMLID_74_" fill-rule="evenodd" clip-rule="evenodd" fill="#44454A" d="M709.4,817c-3.8,2.2-5.7,3.3-9.4,5.5
		c-0.4,0.2-0.3,0.6,0.1,0.8c4.2,2.4,6.3,3.6,10.6,6c0.4,0.2,1,0.2,1.4,0c3.8-2.2,5.6-3.3,9.4-5.5c0.4-0.2,0.3-0.6-0.1-0.8
		c-4.2-2.4-6.3-3.6-10.5-6C710.3,816.8,709.7,816.8,709.4,817"/>
	<path id="XMLID_73_" fill-rule="evenodd" clip-rule="evenodd" fill="#44454A" d="M730.9,834c3.7-2.2,5.6-3.3,9.4-5.5
		c0.4-0.2,0.3-0.6-0.1-0.8c-4.2-2.4-6.3-3.6-10.5-6c-0.4-0.2-1-0.2-1.4,0c-3.8,2.2-5.6,3.3-9.4,5.5c-0.4,0.2-0.3,0.6,0.1,0.8
		c4.2,2.4,6.3,3.6,10.5,6C729.9,834.2,730.5,834.2,730.9,834"/>
	<path id="XMLID_72_" fill-rule="evenodd" clip-rule="evenodd" fill="#44454A" d="M742.7,827c3.7-2.2,5.6-3.3,9.4-5.5
		c0.4-0.2,0.3-0.6-0.1-0.8c-4.2-2.4-6.3-3.6-10.5-6c-0.4-0.2-1-0.2-1.4,0c-3.8,2.2-5.6,3.3-9.4,5.5c-0.4,0.2-0.3,0.6,0.1,0.8
		c4.2,2.4,6.3,3.6,10.5,6C741.7,827.2,742.3,827.3,742.7,827"/>
	<path id="XMLID_71_" fill-rule="evenodd" clip-rule="evenodd" fill="#44454A" d="M766.3,813.1c3.8-2.2,5.6-3.3,9.4-5.5
		c0.4-0.2,0.3-0.6-0.1-0.8c-4.2-2.4-6.3-3.6-10.4-6c-0.4-0.2-1-0.2-1.4,0c-3.8,2.2-5.6,3.3-9.4,5.6c-0.4,0.2-0.3,0.6,0.1,0.8
		c4.2,2.4,6.3,3.6,10.5,6C765.3,813.3,766,813.3,766.3,813.1"/>
	<path id="XMLID_70_" fill-rule="evenodd" clip-rule="evenodd" fill="#44454A" d="M697.5,824c-3.8,2.2-5.7,3.3-9.4,5.5
		c-0.4,0.2-0.3,0.6,0.1,0.8c4.2,2.4,6.4,3.6,10.6,6c0.4,0.2,1,0.2,1.4,0c3.8-2.2,5.7-3.3,9.4-5.5c0.4-0.2,0.3-0.6-0.1-0.8
		c-4.2-2.4-6.3-3.6-10.6-6C698.4,823.8,697.8,823.8,697.5,824"/>
	<path id="XMLID_69_" fill-rule="evenodd" clip-rule="evenodd" fill="#44454A" d="M754.5,820.1c3.8-2.2,5.6-3.3,9.4-5.5
		c0.4-0.2,0.3-0.6-0.1-0.8c-4.2-2.4-6.3-3.6-10.5-6c-0.4-0.2-1-0.2-1.4,0c-3.8,2.2-5.6,3.3-9.4,5.5c-0.4,0.2-0.3,0.6,0.1,0.8
		c4.2,2.4,6.3,3.6,10.5,6C753.5,820.3,754.1,820.3,754.5,820.1"/>
	<path id="XMLID_68_" fill-rule="evenodd" clip-rule="evenodd" fill="#44454A" d="M719,841c3.8-2.2,5.6-3.3,9.4-5.5
		c0.4-0.2,0.3-0.6-0.1-0.8c-4.2-2.4-6.3-3.6-10.5-6c-0.4-0.2-1-0.2-1.4,0c-3.8,2.2-5.6,3.3-9.4,5.5c-0.4,0.2-0.3,0.6,0.1,0.8
		c4.2,2.4,6.3,3.6,10.6,6C718.1,841.2,718.7,841.2,719,841"/>
	<path id="XMLID_67_" fill-rule="evenodd" clip-rule="evenodd" fill="#44454A" d="M707.2,848c3.8-2.2,5.7-3.3,9.4-5.5
		c0.4-0.2,0.3-0.6-0.1-0.8c-4.2-2.4-6.3-3.6-10.6-6c-0.4-0.2-1-0.2-1.4,0c-3.8,2.2-5.7,3.3-9.4,5.5c-0.4,0.2-0.3,0.6,0.1,0.8
		c4.2,2.4,6.3,3.6,10.6,6C706.2,848.2,706.8,848.2,707.2,848"/>
	<path id="XMLID_66_" fill-rule="evenodd" clip-rule="evenodd" fill="#44454A" d="M685.6,831c-3.8,2.2-5.7,3.3-9.5,5.6
		c-0.4,0.2-0.3,0.6,0.1,0.8c4.2,2.4,6.4,3.6,10.6,6c0.4,0.2,1,0.2,1.4,0c3.8-2.2,5.7-3.3,9.4-5.5c0.4-0.2,0.3-0.6-0.1-0.8
		c-4.2-2.4-6.3-3.6-10.6-6C686.5,830.8,685.9,830.7,685.6,831"/>
	<path id="XMLID_65_" fill-rule="evenodd" clip-rule="evenodd" fill="#44454A" d="M673.7,837.9c-3.8,2.2-5.7,3.3-9.5,5.6
		c-0.4,0.2-0.3,0.6,0.1,0.8c4.2,2.4,6.4,3.6,10.6,6c0.4,0.2,1,0.2,1.4,0c3.8-2.2,5.7-3.3,9.5-5.6c0.4-0.2,0.3-0.6-0.1-0.8
		c-4.2-2.4-6.4-3.6-10.6-6C674.6,837.8,674,837.7,673.7,837.9"/>
	<path id="XMLID_64_" fill-rule="evenodd" clip-rule="evenodd" fill="#44454A" d="M693.9,854.9c0.4,0.2,1,0.2,1.4,0
		c3.8-2.2,5.7-3.3,9.4-5.6c0.4-0.2,0.3-0.6-0.1-0.8c-4.2-2.4-6.4-3.6-10.6-6c-0.4-0.2-1-0.2-1.4,0c-3.8,2.2-5.7,3.3-9.5,5.6
		c-0.4,0.2-0.3,0.6,0.1,0.8C687.6,851.3,689.7,852.5,693.9,854.9"/>
	<path id="XMLID_63_" fill-rule="evenodd" clip-rule="evenodd" fill="#44454A" d="M712.4,796.6c0.4,0.2,1,0.3,1.4,0
		c3.8-2.2,5.7-3.3,9.5-5.6c0.4-0.2,0.3-0.6-0.1-0.8c-4.2-2.4-6.3-3.7-10.6-6.1c-0.4-0.2-1-0.3-1.4,0c-3.8,2.2-5.7,3.3-9.5,5.6
		c-0.4,0.2-0.3,0.6,0.1,0.8C706.1,792.9,708.2,794.1,712.4,796.6"/>
	<path id="XMLID_62_" fill-rule="evenodd" clip-rule="evenodd" fill="#44454A" d="M700.9,866.6c-4.2-2.4-6.4-3.6-10.6-6
		c-0.4-0.2-1-0.2-1.4,0c-9.3,5.5-18.7,11-28,16.4c-0.4,0.2-0.3,0.6,0.1,0.8c4.2,2.4,6.4,3.6,10.6,6c0.4,0.2,1,0.2,1.4,0
		c9.3-5.5,18.7-11,28-16.4C701.4,867.2,701.3,866.8,700.9,866.6"/>
	<path id="XMLID_61_" fill-rule="evenodd" clip-rule="evenodd" fill="#44454A" d="M641.4,854.1c-4.2-2.4-6.4-3.6-10.6-6.1
		c-0.4-0.2-1-0.2-1.4,0c-3.8,2.2-5.7,3.3-9.5,5.6c-0.4,0.2-0.3,0.6,0.1,0.8c4.3,2.4,6.4,3.6,10.6,6.1c0.4,0.2,1,0.2,1.4,0
		c3.8-2.2,5.7-3.4,9.5-5.6C641.8,854.7,641.8,854.4,641.4,854.1"/>
	<path id="XMLID_60_" fill-rule="evenodd" clip-rule="evenodd" fill="#44454A" d="M627.7,846.3c-4.3-2.4-6.4-3.7-10.7-6.1
		c-0.4-0.2-1-0.2-1.4,0c-3.8,2.2-5.7,3.3-9.5,5.6c-0.4,0.2-0.3,0.6,0.1,0.8c4.3,2.4,6.4,3.7,10.7,6.1c0.4,0.2,1,0.2,1.4,0
		c3.8-2.2,5.7-3.4,9.5-5.6C628.1,846.9,628.1,846.5,627.7,846.3"/>
	<path id="XMLID_59_" fill-rule="evenodd" clip-rule="evenodd" fill="#44454A" d="M680.6,862.7c-4.2-2.4-6.4-3.6-10.6-6
		c-0.4-0.2-1-0.2-1.4,0c-7.1,4.2-14.3,8.4-21.4,12.5c-0.4,0.2-0.3,0.6,0.1,0.8c4.2,2.4,6.4,3.6,10.6,6c0.4,0.2,1,0.2,1.4,0
		c7.1-4.2,14.3-8.4,21.4-12.6C681.1,863.3,681,863,680.6,862.7"/>
	<path id="XMLID_58_" fill-rule="evenodd" clip-rule="evenodd" fill="#44454A" d="M661.7,858.1c-4.2-2.4-6.4-3.6-10.6-6
		c-0.4-0.2-1-0.2-1.4,0c-5.4,3.1-10.7,6.3-16.1,9.4c-0.4,0.2-0.3,0.6,0.1,0.8c4.2,2.4,6.4,3.6,10.6,6c0.4,0.2,1,0.2,1.4,0
		c5.4-3.1,10.7-6.3,16.1-9.4C662.1,858.7,662.1,858.3,661.7,858.1"/>
	<path id="XMLID_57_" fill-rule="evenodd" clip-rule="evenodd" fill="#44454A" d="M628.8,845.6c0.4,0.2,1,0.2,1.4,0
		c3.8-2.2,5.7-3.3,9.5-5.6c0.4-0.2,0.3-0.6-0.1-0.8c-4.3-2.4-6.4-3.6-10.7-6.1c-0.4-0.2-1-0.2-1.4,0c-3.8,2.2-5.7,3.3-9.5,5.6
		c-0.4,0.2-0.3,0.6,0.1,0.8C622.4,842,624.6,843.2,628.8,845.6z"/>
	<path id="XMLID_56_" fill="none" stroke="#44454A" stroke-width="0.216" stroke-miterlimit="22.9256" d="M628.8,845.6
		c0.4,0.2,1,0.2,1.4,0c3.8-2.2,5.7-3.3,9.5-5.6c0.4-0.2,0.3-0.6-0.1-0.8c-4.3-2.4-6.4-3.6-10.7-6.1c-0.4-0.2-1-0.2-1.4,0
		c-3.8,2.2-5.7,3.3-9.5,5.6c-0.4,0.2-0.3,0.6,0.1,0.8C622.4,842,624.6,843.2,628.8,845.6z"/>
	<path id="XMLID_55_" fill-rule="evenodd" clip-rule="evenodd" fill="#44454A" d="M640.8,838.6c0.4,0.2,1,0.2,1.4,0
		c3.8-2.2,5.7-3.3,9.5-5.6c0.4-0.2,0.3-0.6-0.1-0.8c-4.3-2.4-6.4-3.7-10.7-6.1c-0.4-0.2-1-0.2-1.4,0c-3.8,2.2-5.7,3.3-9.5,5.6
		c-0.4,0.2-0.3,0.6,0.1,0.8C634.4,835,636.6,836.2,640.8,838.6"/>
	<path id="XMLID_54_" fill-rule="evenodd" clip-rule="evenodd" fill="#44454A" d="M676.7,817.6c0.4,0.2,1,0.2,1.4,0
		c3.8-2.2,5.7-3.3,9.5-5.6c0.4-0.2,0.3-0.6-0.1-0.8c-4.2-2.4-6.4-3.7-10.6-6.1c-0.4-0.2-1-0.2-1.4,0c-3.8,2.2-5.7,3.3-9.5,5.6
		c-0.4,0.2-0.3,0.6,0.1,0.8C670.3,813.9,672.4,815.2,676.7,817.6"/>
	<path id="XMLID_53_" fill-rule="evenodd" clip-rule="evenodd" fill="#44454A" d="M664.7,824.6c0.4,0.2,1,0.2,1.4,0
		c3.8-2.2,5.7-3.3,9.5-5.6c0.4-0.2,0.3-0.6-0.1-0.8c-4.2-2.4-6.4-3.7-10.6-6.1c-0.4-0.2-1-0.2-1.4,0c-3.8,2.2-5.7,3.3-9.5,5.6
		c-0.4,0.2-0.3,0.6,0.1,0.8C658.3,820.9,660.5,822.2,664.7,824.6z"/>
	<path id="XMLID_52_" fill="none" stroke="#44454A" stroke-width="0.216" stroke-miterlimit="22.9256" d="M664.7,824.6
		c0.4,0.2,1,0.2,1.4,0c3.8-2.2,5.7-3.3,9.5-5.6c0.4-0.2,0.3-0.6-0.1-0.8c-4.2-2.4-6.4-3.7-10.6-6.1c-0.4-0.2-1-0.2-1.4,0
		c-3.8,2.2-5.7,3.3-9.5,5.6c-0.4,0.2-0.3,0.6,0.1,0.8C658.3,820.9,660.5,822.2,664.7,824.6z"/>
	<path id="XMLID_51_" fill-rule="evenodd" clip-rule="evenodd" fill="#44454A" d="M652.8,831.6c0.4,0.2,1,0.3,1.4,0
		c3.8-2.2,5.7-3.3,9.5-5.6c0.4-0.2,0.3-0.6-0.1-0.8c-4.3-2.4-6.4-3.7-10.7-6.1c-0.4-0.2-1-0.2-1.4,0c-3.8,2.2-5.7,3.3-9.5,5.6
		c-0.4,0.2-0.3,0.6,0.1,0.8C646.4,827.9,648.5,829.2,652.8,831.6"/>
	<path id="XMLID_50_" fill-rule="evenodd" clip-rule="evenodd" fill="#44454A" d="M815.8,802.3c-0.4-0.2-1-0.2-1.4,0
		c-38.4,22.8-76.9,45.6-115.5,68.2c-0.4,0.2-0.3,0.6,0.1,0.8c4.3,2.4,6.4,3.6,10.7,6c0.4,0.2,1,0.2,1.4,0
		c38.5-22.7,76.8-45.4,115.2-68.1c0.4-0.2,0.3-0.6-0.1-0.8C822,805.9,819.9,804.7,815.8,802.3"/>
	<path id="XMLID_49_" fill-rule="evenodd" clip-rule="evenodd" fill="#44454A" d="M876.3,766.5c-0.4-0.2-1-0.2-1.4,0
		c-3.9,2.3-5.9,3.5-9.8,5.8c-0.4,0.2-0.3,0.6,0,0.8c4.2,2.4,6.3,3.6,10.4,6c0.4,0.2,1,0.2,1.4,0c3.9-2.3,5.9-3.5,9.8-5.8
		c0.4-0.2,0.4-0.6,0-0.8C882.6,770.1,880.5,768.9,876.3,766.5"/>
	<path id="XMLID_48_" fill-rule="evenodd" clip-rule="evenodd" fill="#44454A" d="M864,773.8c-0.4-0.2-1-0.2-1.4,0
		c-3.9,2.3-5.8,3.4-9.7,5.7c-0.4,0.2-0.3,0.6,0.1,0.8c4.1,2.4,6.2,3.6,10.4,6c0.4,0.2,1,0.2,1.4,0c3.8-2.3,5.8-3.4,9.7-5.7
		c0.4-0.2,0.3-0.6-0.1-0.8C870.3,777.4,868.2,776.2,864,773.8"/>
	<path id="XMLID_47_" fill-rule="evenodd" clip-rule="evenodd" fill="#44454A" d="M851.8,781c-0.4-0.2-1-0.2-1.4,0
		c-3.8,2.3-5.8,3.4-9.6,5.7c-0.4,0.2-0.3,0.6,0.1,0.8c4.2,2.4,6.2,3.6,10.4,6c0.4,0.2,1,0.2,1.4,0c3.8-2.3,5.7-3.4,9.6-5.7
		c0.4-0.2,0.3-0.6,0-0.8C858.1,784.6,856,783.4,851.8,781"/>
	<path id="XMLID_46_" fill-rule="evenodd" clip-rule="evenodd" fill="#44454A" d="M685.6,879.1c-0.4-0.2-1-0.2-1.4,0
		c-3.8,2.2-5.7,3.4-9.6,5.6c-0.4,0.2-0.3,0.6,0.1,0.8c4.2,2.4,6.4,3.6,10.6,6c0.4,0.2,1,0.2,1.4,0c3.8-2.3,5.8-3.4,9.6-5.6
		c0.4-0.2,0.3-0.6-0.1-0.8C692,882.7,689.9,881.5,685.6,879.1"/>
	<path id="XMLID_45_" fill-rule="evenodd" clip-rule="evenodd" fill="#44454A" d="M839.7,788.1c-0.4-0.2-1-0.2-1.4,0
		c-3.8,2.3-5.7,3.4-9.5,5.6c-0.4,0.2-0.3,0.6,0.1,0.8c4.2,2.4,6.2,3.6,10.4,6c0.4,0.2,1,0.2,1.4,0c3.8-2.2,5.7-3.4,9.5-5.6
		c0.4-0.2,0.3-0.6-0.1-0.8C846,791.7,843.9,790.5,839.7,788.1"/>
	<path id="XMLID_44_" fill-rule="evenodd" clip-rule="evenodd" fill="#44454A" d="M697.6,872.1c-0.4-0.2-1-0.2-1.4,0
		c-3.8,2.2-5.7,3.4-9.5,5.6c-0.4,0.2-0.3,0.6,0.1,0.8c4.3,2.4,6.4,3.6,10.7,6c0.4,0.2,1,0.2,1.4,0c3.8-2.2,5.7-3.4,9.5-5.6
		c0.4-0.2,0.3-0.6-0.1-0.8C704,875.7,701.9,874.5,697.6,872.1"/>
	<path id="XMLID_43_" fill-rule="evenodd" clip-rule="evenodd" fill="#44454A" d="M688.6,810.6c0.4,0.2,1,0.2,1.4,0
		c3.8-2.2,5.7-3.3,9.5-5.6c0.4-0.2,0.3-0.6-0.1-0.8c-4.2-2.4-6.4-3.7-10.6-6.1c-0.4-0.2-1-0.3-1.4,0c-3.8,2.2-5.7,3.3-9.5,5.6
		c-0.4,0.2-0.3,0.6,0.1,0.8C682.2,806.9,684.3,808.2,688.6,810.6"/>
	<path id="XMLID_42_" fill-rule="evenodd" clip-rule="evenodd" fill="#44454A" d="M827.7,795.2c-0.4-0.2-1-0.2-1.4,0
		c-3.8,2.2-5.7,3.4-9.5,5.6c-0.4,0.2-0.3,0.6,0.1,0.8c4.2,2.4,6.2,3.6,10.4,6c0.4,0.2,1,0.2,1.4,0c3.8-2.2,5.7-3.4,9.4-5.6
		c0.4-0.2,0.3-0.6-0.1-0.8C834,798.8,831.9,797.6,827.7,795.2"/>
	<path id="XMLID_41_" fill-rule="evenodd" clip-rule="evenodd" fill="#44454A" d="M822.3,795.7c8.7-5.1,17.4-10.3,26.2-15.5
		c0.4-0.2,0.3-0.6,0-0.8c-4.1-2.4-6.2-3.6-10.4-6c-0.4-0.2-1-0.2-1.4,0c-8.7,5.2-17.5,10.3-26.2,15.5c-0.4,0.2-0.3,0.6,0.1,0.8
		c4.2,2.4,6.2,3.6,10.4,6C821.4,795.9,822,795.9,822.3,795.7"/>
	<path id="XMLID_40_" fill-rule="evenodd" clip-rule="evenodd" fill="#44454A" d="M798.1,810c3.8-2.2,5.7-3.3,9.4-5.6
		c0.4-0.2,0.3-0.6-0.1-0.8c-4.2-2.4-6.2-3.6-10.4-6c-0.4-0.2-1-0.2-1.4,0c-3.8,2.2-5.7,3.3-9.4,5.6c-0.4,0.2-0.3,0.6,0.1,0.8
		c4.2,2.4,6.2,3.6,10.4,6C797.2,810.2,797.8,810.2,798.1,810"/>
	<path id="XMLID_39_" fill-rule="evenodd" clip-rule="evenodd" fill="#44454A" d="M739.2,844.9c3.7-2.2,5.6-3.3,9.4-5.5
		c0.4-0.2,0.3-0.6-0.1-0.8c-4.2-2.4-6.3-3.6-10.5-6c-0.4-0.2-1-0.2-1.4,0c-3.7,2.2-5.6,3.3-9.4,5.5c-0.4,0.2-0.3,0.6,0.1,0.8
		c4.2,2.4,6.3,3.6,10.6,6C738.2,845.1,738.9,845.1,739.2,844.9"/>
	<path id="XMLID_38_" fill-rule="evenodd" clip-rule="evenodd" fill="#44454A" d="M810,803c3.8-2.2,5.7-3.4,9.4-5.6
		c0.4-0.2,0.3-0.6-0.1-0.8c-4.2-2.4-6.2-3.6-10.4-6c-0.4-0.2-1-0.2-1.4,0c-3.8,2.2-5.7,3.4-9.5,5.6c-0.4,0.2-0.3,0.6,0.1,0.8
		c4.2,2.4,6.2,3.6,10.4,6C809,803.2,809.6,803.2,810,803"/>
	<path id="XMLID_37_" fill-rule="evenodd" clip-rule="evenodd" fill="#44454A" d="M838.3,757.6c4.2,2.4,6.3,3.6,10.4,6
		c0.4,0.2,1,0.2,1.4,0c3.9-2.3,5.8-3.4,9.7-5.7c0.4-0.2,0.3-0.6-0.1-0.8c-4.2-2.4-6.3-3.6-10.4-6c-0.4-0.2-1-0.2-1.4,0
		c-3.9,2.3-5.8,3.4-9.7,5.7C837.9,757,837.9,757.4,838.3,757.6"/>
	<path id="XMLID_36_" fill-rule="evenodd" clip-rule="evenodd" fill="#44454A" d="M820.5,752.5c4.2,2.4,6.3,3.6,10.4,6
		c0.4,0.2,1,0.2,1.4,0c3.9-2.3,10.1-6,14-8.3c0.4-0.2,0.3-0.6,0-0.8c-4.2-2.4-6.3-3.6-10.5-6c-0.4-0.2-1-0.2-1.4,0
		c-3.9,2.3-10.1,6-13.9,8.3C820.1,751.9,820.2,752.2,820.5,752.5"/>
	<path id="XMLID_35_" fill-rule="evenodd" clip-rule="evenodd" fill="#44454A" d="M851.4,778.6c3.9-2.3,5.8-3.4,9.7-5.7
		c0.4-0.2,0.3-0.6,0-0.8c-4.2-2.4-6.2-3.6-10.4-6c-0.4-0.2-1-0.2-1.4,0c-3.9,2.3-5.8,3.4-9.6,5.7c-0.4,0.2-0.3,0.6,0.1,0.8
		c4.2,2.4,6.2,3.6,10.4,6C850.4,778.8,851,778.8,851.4,778.6"/>
	<path id="XMLID_34_" fill-rule="evenodd" clip-rule="evenodd" fill="#44454A" d="M751,837.9c3.7-2.2,5.6-3.3,9.3-5.5
		c0.4-0.2,0.3-0.6-0.1-0.8c-4.2-2.4-6.3-3.6-10.5-6c-0.4-0.2-1-0.2-1.4,0c-3.7,2.2-5.6,3.3-9.4,5.5c-0.4,0.2-0.3,0.6,0.1,0.8
		c4.2,2.4,6.3,3.6,10.5,6C750,838.1,750.6,838.1,751,837.9"/>
	<path id="XMLID_33_" fill-rule="evenodd" clip-rule="evenodd" fill="#44454A" d="M700.5,803.6c0.4,0.2,1,0.3,1.4,0
		c3.8-2.2,5.7-3.3,9.5-5.6c0.4-0.2,0.3-0.6-0.1-0.8c-4.2-2.4-6.3-3.7-10.6-6.1c-0.4-0.2-1-0.3-1.4,0c-3.8,2.2-5.7,3.3-9.5,5.6
		c-0.4,0.2-0.3,0.6,0.1,0.8C694.1,799.9,696.3,801.1,700.5,803.6"/>
	<path id="XMLID_32_" fill-rule="evenodd" clip-rule="evenodd" fill="#44454A" d="M786.3,817c3.7-2.2,5.6-3.3,9.4-5.5
		c0.4-0.2,0.3-0.6-0.1-0.8c-4.2-2.4-6.3-3.6-10.4-6c-0.4-0.2-1-0.2-1.4,0c-3.8,2.2-5.6,3.3-9.4,5.5c-0.4,0.2-0.3,0.6,0.1,0.8
		c4.2,2.4,6.3,3.6,10.4,6C785.4,817.2,786,817.2,786.3,817"/>
	<path id="XMLID_31_" fill-rule="evenodd" clip-rule="evenodd" fill="#44454A" d="M774.5,824c3.7-2.2,5.6-3.3,9.4-5.5
		c0.4-0.2,0.3-0.6-0.1-0.8c-4.2-2.4-6.3-3.6-10.5-6c-0.4-0.2-1-0.2-1.4,0c-3.7,2.2-5.6,3.3-9.4,5.5c-0.4,0.2-0.3,0.6,0.1,0.8
		c4.2,2.4,6.3,3.6,10.5,6C773.6,824.2,774.2,824.2,774.5,824"/>
	<path id="XMLID_30_" fill-rule="evenodd" clip-rule="evenodd" fill="#44454A" d="M762.8,831c3.7-2.2,5.6-3.3,9.3-5.5
		c0.4-0.2,0.3-0.6-0.1-0.8c-4.2-2.4-6.3-3.6-10.5-6c-0.4-0.2-1-0.2-1.4,0c-3.7,2.2-5.6,3.3-9.4,5.5c-0.4,0.2-0.3,0.6,0.1,0.8
		c4.2,2.4,6.3,3.6,10.5,6C761.8,831.2,762.4,831.2,762.8,831"/>
	<path id="XMLID_29_" fill-rule="evenodd" clip-rule="evenodd" fill="#44454A" d="M736.3,782.6c0.4,0.2,1,0.2,1.4,0
		c3.8-2.2,5.7-3.3,9.5-5.6c0.4-0.2,0.3-0.6-0.1-0.8c-4.2-2.5-6.3-3.7-10.5-6.2c-0.4-0.2-1-0.3-1.4,0c-3.8,2.2-5.7,3.3-9.5,5.6
		c-0.4,0.2-0.3,0.6,0.1,0.8C729.9,778.9,732,780.1,736.3,782.6"/>
	<path id="XMLID_28_" fill-rule="evenodd" clip-rule="evenodd" fill="#44454A" d="M748.2,775.6c0.4,0.2,1,0.2,1.4,0
		c3.8-2.2,5.7-3.3,9.5-5.6c0.4-0.2,0.3-0.6-0.1-0.8c-4.2-2.5-6.3-3.7-10.5-6.2c-0.4-0.2-1-0.3-1.4,0c-3.8,2.2-5.7,3.3-9.5,5.6
		c-0.4,0.2-0.3,0.6,0.1,0.8C741.9,771.9,744,773.1,748.2,775.6"/>
	<path id="XMLID_27_" fill-rule="evenodd" clip-rule="evenodd" fill="#44454A" d="M724.3,789.6c0.4,0.2,1,0.2,1.4,0
		c3.8-2.2,5.7-3.3,9.5-5.6c0.4-0.2,0.3-0.6-0.1-0.8c-4.2-2.5-6.3-3.7-10.6-6.2c-0.4-0.2-1-0.3-1.4,0c-3.8,2.2-5.7,3.3-9.5,5.6
		c-0.4,0.2-0.3,0.6,0.1,0.8C718,785.9,720.1,787.1,724.3,789.6"/>
	<path id="XMLID_26_" fill-rule="evenodd" clip-rule="evenodd" fill="#44454A" d="M760.1,768.5c0.4,0.2,1,0.3,1.4,0
		c3.8-2.2,5.7-3.4,9.5-5.6c0.4-0.2,0.3-0.6-0.1-0.8c-4.2-2.5-6.3-3.7-10.5-6.2c-0.4-0.2-1-0.3-1.4,0c-3.8,2.2-5.7,3.3-9.5,5.6
		c-0.4,0.2-0.3,0.6,0.1,0.8C753.8,764.8,755.9,766.1,760.1,768.5"/>
	<path id="XMLID_25_" fill-rule="evenodd" clip-rule="evenodd" fill="#44454A" d="M784.1,754.4c0.4,0.2,1,0.3,1.4,0
		c3.8-2.2,5.7-3.4,9.5-5.6c0.4-0.2,0.3-0.6-0.1-0.8c-4.2-2.4-6.3-3.7-10.5-6.1c-0.4-0.2-1-0.3-1.4,0c-3.8,2.2-5.7,3.4-9.5,5.6
		c-0.4,0.2-0.3,0.6,0.1,0.8C777.8,750.8,779.9,752,784.1,754.4"/>
	<path id="XMLID_24_" fill-rule="evenodd" clip-rule="evenodd" fill="#44454A" d="M772.1,761.5c0.4,0.2,1,0.2,1.4,0
		c3.8-2.2,5.7-3.4,9.5-5.6c0.4-0.2,0.3-0.6-0.1-0.8c-4.2-2.4-6.3-3.7-10.5-6.1c-0.4-0.2-1-0.3-1.4,0c-3.8,2.2-5.7,3.4-9.5,5.6
		c-0.4,0.2-0.3,0.6,0.1,0.8C765.8,757.8,767.9,759,772.1,761.5"/>
	<path id="XMLID_23_" fill-rule="evenodd" clip-rule="evenodd" fill="#44454A" d="M796.2,747.4c0.4,0.2,1,0.2,1.4,0
		c3.8-2.2,5.7-3.4,9.6-5.6c0.4-0.2,0.3-0.6-0.1-0.8c-4.2-2.4-6.3-3.7-10.6-6.1c-0.4-0.2-1-0.3-1.4,0c-3.8,2.2-5.7,3.4-9.6,5.6
		c-0.4,0.2-0.3,0.6,0.1,0.8C789.8,743.7,791.9,744.9,796.2,747.4"/>
	<path id="XMLID_22_" fill-rule="evenodd" clip-rule="evenodd" fill="#44454A" d="M808.2,740.3c0.4,0.2,1,0.2,1.4,0
		c3.8-2.3,5.8-3.4,9.6-5.6c0.4-0.2,0.3-0.6-0.1-0.8c-4.2-2.4-6.4-3.6-10.6-6.1c-0.4-0.2-1-0.3-1.4,0c-3.8,2.2-5.7,3.4-9.6,5.6
		c-0.4,0.2-0.3,0.6,0.1,0.8C801.9,736.6,804,737.8,808.2,740.3"/>
	<path id="XMLID_21_" fill-rule="evenodd" clip-rule="evenodd" fill="#44454A" d="M811.3,742.1c4.2,2.4,6.3,3.6,10.5,6.1
		c0.4,0.2,1,0.2,1.4,0c3.8-2.3,5.8-3.4,9.6-5.7c0.4-0.2,0.3-0.6-0.1-0.8c-4.2-2.4-6.3-3.6-10.5-6c-0.4-0.2-1-0.2-1.4,0
		c-3.9,2.3-5.8,3.4-9.6,5.6C810.9,741.5,810.9,741.8,811.3,742.1"/>
	<path id="XMLID_20_" fill-rule="evenodd" clip-rule="evenodd" fill="#464B54" d="M886.7,714.9l0-0.3c0,0.5,0.1,1.1,0.2,1.6
		c0.2,0.7,0.4,1.5,0.7,2.2l0.1,0.3c0.1,0.2,0.2,0.4,0.3,0.6l0.1,0.1c0.2,0.3,0.3,0.6,0.5,0.8l0.2,0.3c0.2,0.3,0.5,0.7,0.7,1l0.2,0.3
		l0,0c0.2,0.3,0.5,0.5,0.7,0.8l0,0l0.3,0.3c0.3,0.3,0.6,0.6,0.9,0.9l0.1,0.1l0.2,0.2c0.3,0.2,0.5,0.5,0.8,0.7l0,0
		c0.7,0.6,1.5,1.2,2.4,1.8l0.1,0.1c0.2,0.1,0.4,0.3,0.6,0.4c0.2,0.1,0.4,0.2,0.6,0.4c0.2,0.1,0.5,0.3,0.7,0.4
		c0.4,0.2,0.8,0.5,1.2,0.7l0.2,0.1c0.5,0.3,1,0.6,1.5,0.8c6.5,3.6,11.9,6.1,16.5,7.6c0.2,0.1,0.3,0.1,0.5,0.2
		c0.2,0.1,0.3,0.1,0.5,0.2c0.5,0.2,1,0.3,1.5,0.4c0.2,0.1,0.4,0.1,0.5,0.2c0.5,0.1,1,0.3,1.5,0.4l0.2,0.1c0.6,0.1,1.1,0.2,1.7,0.3
		l0.4,0.1c0.4,0.1,0.8,0.1,1.2,0.2l0.3,0l0.4,0c0.4,0,0.7,0.1,1.1,0.1c0.2,0,0.4,0,0.5,0c0.3,0,0.6,0,0.9,0c0.5,0,1,0,1.5,0l0.1,0
		c0.2,0,0.5,0,0.7,0c0.3,0,0.7,0,1-0.1l0.2,0c0.2,0,0.4-0.1,0.6-0.1c0.3,0,0.7-0.1,1-0.2l0,0c0.2,0,0.4-0.1,0.6-0.1
		c0.5-0.1,1-0.2,1.5-0.4l0.1,0c0.2-0.1,0.4-0.1,0.6-0.2c0.4-0.1,0.8-0.3,1.2-0.4l0.4-0.2c0.4-0.2,0.7-0.3,1.1-0.5l0.3-0.1l0.2-0.1
		l0.1-0.1l0.1-0.1c0.6-0.3,1.1-0.6,1.7-0.9c3.1-1.8,5.6-3.8,6-6.3c0-0.3,0.1-0.6,0.1-0.8c0,0.2,0,0.4,0,0.6c0,0.4-0.1,0.7-0.1,1
		l0,0.2l0,0.2c-0.1,0.3-0.2,0.7-0.4,1.1l0,0l0,0c-0.1,0.2-0.2,0.4-0.4,0.8l0,0c-0.1,0.2-0.3,0.5-0.5,0.8l-0.1,0.1
		c-0.2,0.3-0.4,0.6-0.7,0.9c-0.2,0.3-0.5,0.5-0.8,0.8l-0.1,0.1l-0.1,0.1c-0.2,0.2-0.4,0.3-0.5,0.5l-0.2,0.1l0,0
		c-0.3,0.2-0.6,0.5-1,0.7l-0.1,0.1l-0.1,0.1c-0.9,0.6-1.9,1.3-3.1,1.9l0,0l-0.1,0.1c-0.3,0.2-0.6,0.3-0.9,0.5l-0.2,0.1l-0.4,0.2
		c-0.2,0.1-0.5,0.2-0.7,0.3l-0.3,0.1l-0.1,0c-0.4,0.2-0.8,0.3-1.1,0.4l-0.1,0l-0.2,0.1c-0.5,0.2-0.9,0.3-1.4,0.4l-0.2,0.1l-0.3,0.1
		c-0.4,0.1-0.7,0.2-1.1,0.2h0h0l0,0l-0.4,0.1c-0.3,0-0.6,0.1-1,0.1l-0.2,0c-0.4,0-0.9,0.1-1.3,0.1l0,0h0l-0.1,0h0c-0.5,0-1,0-1.4,0
		l0,0c-0.2,0-0.3,0-0.5,0c-0.4,0-0.7-0.1-1.1-0.1l-0.1,0l0,0l0,0l-0.1,0l0,0c-0.5-0.1-1.1-0.2-1.6-0.3l-0.2,0l-0.1,0l-0.4-0.1
		c-1.2-0.3-2.4-0.6-3.6-0.9l-0.1,0l-0.1,0l-0.4-0.1c-0.2-0.1-0.3-0.1-0.5-0.2l-0.4-0.1c-0.3-0.1-0.5-0.2-0.8-0.3l-0.2-0.1l-0.1,0
		l-0.3-0.1c-3.5-1.2-7.8-3.2-10.3-4.5l-0.2-0.1c-2.1-1-4.3-2.2-6.4-3.4c-0.6-0.3-1.1-0.6-1.5-0.9c-0.5-0.3-0.9-0.5-1.3-0.8l-0.4-0.2
		l-0.2-0.2c-0.4-0.3-0.8-0.5-1.1-0.8l-0.2-0.1c-0.2-0.1-0.4-0.3-0.6-0.5c-0.3-0.3-0.6-0.5-1-0.8c-0.3-0.3-0.7-0.6-1.1-1
		c-1.3-1.2-2.4-2.5-3.3-3.8l-0.2-0.3l0-0.1l-0.1-0.2l-0.3-0.4l-0.1-0.2l0.1,0.1l0,0c-0.1-0.2-0.2-0.4-0.3-0.6c0,0-0.2-0.3-0.4-0.8
		l0-0.1l0,0c-0.1-0.2-0.2-0.4-0.3-0.6l0-0.1l0-0.1l-0.1-0.4l0-0.1l0,0c-0.1-0.3-0.2-0.5-0.2-0.8c-0.1-0.3-0.2-0.8-0.2-1.1l0-0.1
		l0,0.1c0-0.2-0.1-0.3-0.1-0.5c0-0.3,0-0.5-0.1-0.8L886.7,714.9L886.7,714.9z"/>
	<path id="XMLID_19_" fill-rule="evenodd" clip-rule="evenodd" fill="#5F636C" d="M886.7,712.6l0-0.2l0,0.1c0-0.5,0-0.8,0.1-1.1
		l0-0.2l0-0.1l0-0.2l0,0.1c0.1-0.6,0.2-1.1,0.4-1.7l0-0.1l0-0.1c0.8-2.3,2.4-4,3.9-5.2c0.2-0.1,0.4-0.3,0.5-0.4
		c0.3-0.2,0.8-0.5,1.1-0.7l-0.2,0.1l0.2-0.1l0.2-0.1l1.2-0.6c0.4-0.2,0.9-0.3,1.3-0.5l0.1,0l0,0l-0.2,0.1l0.3-0.1l0.1,0l0.4-0.1
		l0.2-0.1l0.6-0.2l0,0c0.5-0.1,1-0.2,1.5-0.3l-0.1,0l0.1,0l0.4-0.1l0.7-0.1l0,0l-0.7,0.1l0.3,0l0.3-0.1l0,0l0.1,0l0.3,0
		c0.2,0,0.4,0,0.6-0.1l0.6-0.1c0.2,0,0.5,0,0.8,0l0.1,0c0.2,0,0.5,0,0.7,0l-0.1,0l0.1,0h0l0.4,0l0.2,0l0.5,0h0l0.4,0
		c0.3,0,0.6,0,0.9,0c0.2,0,0.4,0,0.7,0l0.1,0l0.1,0c0.4,0,0.7,0.1,1.1,0.1l0.3,0c1.2,0.1,2.3,0.3,3.4,0.5l0.3,0.1
		c0.5,0.1,1.1,0.2,1.7,0.4l0.1,0l0.2,0c0.6,0.1,1.2,0.3,1.6,0.4c0,0,0.7,0.2,1.8,0.5l0,0l0,0l0.4,0.1l0,0c0.2,0.1,0.3,0.1,0.5,0.2
		l0.3,0.1l0.1,0l0,0l0.4,0.1l0.1,0l0,0l0,0l0.1,0c0.2,0.1,0.3,0.1,0.5,0.2l0.4,0.2c0.3,0.1,0.6,0.2,0.8,0.3l0.8,0.4
		c0.3,0.1,0.7,0.3,1,0.4c0.1,0,0.8,0.4,1.8,0.9l0.1,0l0.1,0c0.5,0.3,1.1,0.6,1.7,0.9c0.7,0.4,1.5,0.9,2.2,1.3l0,0l0.1,0
		c0.2,0.1,0.4,0.2,0.6,0.4c0.8,0.5,1.6,1,2.4,1.5l0.2,0.1l0.1,0l0.1,0l0.1,0.1l0.1,0c0.2,0.1,0.3,0.2,0.5,0.3l0,0
		c0.5,0.3,1,0.7,1.5,1c0.3,0.2,0.5,0.4,0.8,0.5l0.6,0.4c0.7,0.5,1.3,0.9,1.9,1.4c1,0.7,1.7,1.3,2.3,1.8l0,0l0,0
		c0.8,0.7,1.4,1.2,1.8,1.6c0.3,0.3,0.6,0.5,0.8,0.8l0.3,0.3l0.3,0.3c1.5,1.6,2.4,2.9,3,4.1c0.2,0.3,0.3,0.7,0.5,1l0,0l0,0
		c0.1,0.3,0.2,0.5,0.3,0.8c0.1,0.2,0.1,0.5,0.2,0.7c0,0.2,0.1,0.4,0.1,0.5c0,0.4,0.1,0.9,0.1,1.2c0,2.9-2.6,5.1-6.1,7.1
		c-0.3,0.1-0.5,0.3-0.8,0.4l-0.1,0l-0.1,0.1l-0.1,0.1l-0.1,0l-0.1,0.1l-0.1,0.1l-0.1,0l-0.1,0l-0.1,0.1l-0.1,0.1l-0.1,0l0,0l-0.1,0
		l-0.1,0l-0.2,0.1l-0.1,0.1l-0.1,0l-0.1,0l-0.1,0.1l-0.1,0l-0.2,0.1l-0.1,0l-0.1,0l-0.2,0.1l-0.1,0l-0.1,0l-0.1,0.1l-0.1,0.1l0,0
		l0,0l-0.2,0.1l0,0l-0.1,0l0,0l-0.1,0l-0.1,0l-0.1,0l-0.1,0.1l-0.1,0l-0.1,0l-0.1,0l-0.2,0.1l-0.1,0l-0.1,0l-0.3,0.1l-0.2,0.1
		l-0.1,0l0,0l-0.1,0l-0.1,0l-0.1,0l-0.1,0l-0.1,0l0,0l0,0l-0.2,0.1l-0.1,0l-0.2,0.1l-0.1,0l-0.1,0l-0.1,0l0,0l-0.1,0l-0.3,0.1l0,0
		l-0.1,0l-0.2,0.1l-0.1,0l0,0v0l0,0l0,0l-0.1,0l-0.1,0l-0.4,0.1l-0.2,0l-0.1,0l-0.2,0l-0.1,0l-0.1,0l-0.1,0l-0.1,0l0,0h0l-0.1,0
		l-0.1,0l-0.2,0l-0.2,0l-0.1,0l-0.1,0l-0.1,0l-0.2,0l-0.2,0l0,0l-0.4,0l-0.2,0l-0.1,0l-0.1,0l-0.2,0l-0.3,0l0,0l0,0h-0.1l-0.3,0
		h-0.4h-0.2l-0.2,0l-0.3,0h-0.1l0,0l-0.1,0l-0.4,0l-0.4,0l-0.1,0l0,0l-0.4,0l-0.4,0l-0.1,0h0l-0.1,0c-0.2,0-0.4,0-0.6-0.1l-0.3,0
		l-0.4-0.1c-0.3,0-0.6-0.1-0.8-0.1l-0.2,0l-0.2,0l0,0l0,0l-0.1,0c-0.5-0.1-1.1-0.2-1.7-0.3l-0.3-0.1c-0.5-0.1-1-0.2-1.5-0.4
		c-0.2,0-0.4-0.1-0.6-0.2c-0.4-0.1-0.9-0.3-1.3-0.4c-0.2-0.1-0.3-0.1-0.5-0.2l0.3,0.1c-2.9-0.9-6.1-2.2-9.6-3.9
		c-3.1-1.4-6.6-3.1-9.8-5.2c-0.3-0.2-0.5-0.3-0.8-0.5c-0.3-0.2-0.6-0.3-0.8-0.5c0.2,0.1,0.3,0.2,0.5,0.3c-0.2-0.1-0.4-0.2-0.6-0.4
		c-0.2-0.1-0.3-0.2-0.5-0.3c-0.2-0.1-0.4-0.3-0.6-0.4c-0.2-0.1-0.4-0.3-0.6-0.4c-0.2-0.1-0.4-0.3-0.6-0.4c-0.2-0.1-0.4-0.3-0.5-0.4
		c-0.2-0.1-0.4-0.3-0.5-0.4c-0.2-0.1-0.3-0.3-0.5-0.4c-0.2-0.1-0.3-0.3-0.5-0.4l-0.4-0.4l0,0l0.1,0.1l-0.1-0.1
		c-0.2-0.1-0.3-0.3-0.4-0.4l-0.4-0.4l-0.2-0.2l-0.2-0.3l-0.4-0.4l-0.4-0.4l-0.2-0.2l-0.1-0.1l0,0l0,0l-0.1-0.1l-0.3-0.4l-0.3-0.3
		l-0.1-0.1l-0.1-0.1l0-0.1l-0.2-0.3l-0.2-0.4l0-0.1l-0.2-0.3l0,0l0.1,0.1l-0.1-0.1l0,0l-0.1-0.2l-0.1-0.2l0-0.1l-0.2-0.4l-0.1-0.2
		l-0.1-0.1l0,0l0,0l-0.1-0.3l0,0.1l-0.1-0.4l-0.1-0.3l0,0l0-0.1l0,0l0-0.1l0-0.1l-0.1-0.3l-0.1-0.3l0,0l0-0.1v0l0,0l0,0l0-0.3l0-0.2
		l0-0.1l0-0.2v0l0,0l0,0C886.7,713.2,886.7,712.9,886.7,712.6l0,0.2L886.7,712.6z"/>
	<path id="XMLID_18_" fill-rule="evenodd" clip-rule="evenodd" fill="#6F737E" d="M886.7,712.6c0,0.2,0,0.4,0,0.7l0,0.2
		c0,0.3,0.1,0.5,0.1,0.8l0.1,0.2c0,0.2,0.1,0.4,0.2,0.6l0.1,0.3c0.1,0.2,0.1,0.3,0.2,0.5l0.2,0.4l0.2,0.4l0.2,0.4l0.2,0.4
		c0.1,0.2,0.3,0.4,0.4,0.7l0.2,0.3c0.2,0.3,0.4,0.6,0.7,0.9l0.1,0.1c0.3,0.4,0.6,0.7,0.9,1.1l0.3,0.3c0.3,0.3,0.6,0.7,1,1l0.1,0.1
		c0.3,0.3,0.7,0.6,1,0.9l0.3,0.2c0.3,0.2,0.6,0.5,0.9,0.7l0.4,0.3c0.3,0.2,0.5,0.4,0.8,0.6c0.2,0.1,0.3,0.2,0.5,0.3
		c0.3,0.2,0.6,0.4,0.8,0.5c0.3,0.2,0.6,0.3,0.8,0.5c0.9,0.5,1.8,1,2.7,1.5c0.3,0.2,0.5,0.3,0.8,0.4c0.6,0.3,1.2,0.7,1.8,1
		c0.3,0.2,0.6,0.3,0.8,0.4c0.6,0.3,1.2,0.6,1.8,0.9c0.2,0.1,0.4,0.2,0.6,0.3c0.8,0.4,1.6,0.8,2.3,1.1c0.2,0.1,0.3,0.1,0.5,0.2
		c0.6,0.3,1.2,0.5,1.8,0.8c0.2,0.1,0.5,0.2,0.7,0.3c0.5,0.2,1,0.4,1.5,0.6c0.2,0.1,0.4,0.2,0.7,0.3c0.6,0.2,1.1,0.4,1.7,0.6l0.3,0.1
		c0.6,0.2,1.3,0.4,1.9,0.6c0.2,0.1,0.5,0.2,0.7,0.2c0.3,0.1,0.6,0.2,0.8,0.3c0.2,0.1,0.5,0.1,0.7,0.2c0.3,0.1,0.5,0.1,0.8,0.2
		c0.2,0.1,0.5,0.1,0.7,0.2c0.2,0.1,0.5,0.1,0.7,0.2c0.2,0.1,0.5,0.1,0.7,0.1c0.2,0,0.5,0.1,0.7,0.1c0.2,0,0.4,0.1,0.7,0.1
		c0.2,0,0.5,0.1,0.7,0.1c0.2,0,0.4,0.1,0.6,0.1c0.2,0,0.4,0.1,0.6,0.1l0.4,0c0.5,0,1,0.1,1.5,0.1l0.2,0c0.5,0,0.9,0,1.4,0l0.4,0
		c0.3,0,0.6,0,0.9,0l0.4,0c0.3,0,0.6-0.1,0.9-0.1l0.3,0c0.4-0.1,0.8-0.1,1.2-0.2l0.2,0c0.4-0.1,0.9-0.2,1.3-0.3l0.2,0
		c0.7-0.2,1.3-0.4,2-0.7l0.1,0c0.6-0.3,1.3-0.5,1.9-0.8l0.2-0.1c0.6-0.3,1.2-0.6,1.8-1c1.7-1,3.3-2.1,4.3-3.2
		c1.1-1.2,1.7-2.4,1.7-3.9l0,2c0,2.9-2.6,5.1-6.1,7.1c-0.6,0.3-1.2,0.7-1.8,1l-0.2,0.1c-0.6,0.3-1.2,0.6-1.9,0.8l-0.1,0l0,0
		c-0.6,0.2-1.3,0.5-2,0.7l0,0l-0.1,0c-0.4,0.1-0.9,0.2-1.3,0.3l-0.1,0l-0.1,0c-0.4,0.1-0.8,0.2-1.2,0.2l-0.1,0l-0.2,0
		c-0.3,0-0.6,0.1-0.9,0.1l-0.2,0l-0.2,0c-0.3,0-0.6,0-0.9,0l-0.3,0h-0.1c-0.4,0-0.9,0-1.4,0l-0.1,0l-0.2,0c-0.5,0-1-0.1-1.5-0.1
		l-0.2,0l-0.2,0c-0.2,0-0.4,0-0.6-0.1c-0.2,0-0.4-0.1-0.6-0.1c-0.2,0-0.4-0.1-0.7-0.1c-0.2,0-0.3,0-0.5-0.1l-0.2,0
		c-0.2,0-0.5-0.1-0.7-0.1c-0.2,0-0.4-0.1-0.7-0.1c-0.2-0.1-0.5-0.1-0.7-0.2c-0.2-0.1-0.5-0.1-0.7-0.2c-0.3-0.1-0.5-0.1-0.8-0.2
		c-0.2-0.1-0.5-0.1-0.7-0.2c-0.3-0.1-0.5-0.2-0.8-0.3c-0.2-0.1-0.4-0.1-0.6-0.2l-0.1,0c-0.6-0.2-1.2-0.4-1.9-0.6l-0.3-0.1
		c-0.5-0.2-1.1-0.4-1.7-0.6c-0.2-0.1-0.4-0.2-0.7-0.3c-0.5-0.2-1-0.4-1.5-0.6c-0.2-0.1-0.5-0.2-0.7-0.3c-0.6-0.3-1.2-0.5-1.8-0.8
		l-0.4-0.2c-0.8-0.4-1.5-0.7-2.3-1.1c-0.2-0.1-0.4-0.2-0.6-0.3c-0.6-0.3-1.2-0.6-1.8-0.9c-0.3-0.1-0.6-0.3-0.8-0.4
		c-0.6-0.3-1.2-0.6-1.8-1c-0.3-0.1-0.5-0.3-0.8-0.4c-0.9-0.5-1.8-1-2.7-1.5c-0.2-0.1-0.4-0.2-0.5-0.3l-0.3-0.2
		c-0.3-0.2-0.6-0.4-0.8-0.5c-0.2-0.1-0.3-0.2-0.5-0.3c-0.3-0.2-0.5-0.4-0.8-0.6l-0.4-0.3c-0.3-0.2-0.6-0.4-0.9-0.7l-0.3-0.2
		c-0.4-0.3-0.7-0.6-1-0.9l0,0l-0.1-0.1c-0.3-0.3-0.7-0.7-1-1l-0.3-0.3c-0.3-0.3-0.6-0.7-0.9-1l0-0.1l0,0c-0.2-0.3-0.5-0.6-0.7-0.9
		l-0.2-0.3c-0.1-0.2-0.3-0.4-0.4-0.7l-0.1-0.1l-0.2-0.3l-0.2-0.4l-0.2-0.4l-0.2-0.4l0-0.1l-0.1-0.4l-0.1-0.3
		c-0.1-0.2-0.1-0.4-0.2-0.6l-0.1-0.2l0,0c-0.1-0.3-0.1-0.5-0.1-0.8l0-0.2c0-0.2,0-0.3,0-0.4l0-0.2L886.7,712.6z"/>
	<path id="XMLID_17_" fill-rule="evenodd" clip-rule="evenodd" fill="#6F737E" d="M900.4,701.3c0.5-0.1,1-0.1,1.5-0.2
		c0.2,0,0.5,0,0.8,0l0.1,0c0.2,0,0.4,0,0.6,0l-0.1,0l0.1,0h0l0.4,0l0.2,0l0.5,0h0l0.4,0c0.2,0,0.5,0,0.8,0c0.2,0,0.4,0,0.6,0l0.1,0
		l0.1,0c0.3,0,0.7,0,1,0.1l0.3,0c1.1,0.1,2.2,0.3,3.2,0.5l0.3,0c0.5,0.1,1.1,0.2,1.6,0.3l0.1,0l0.2,0c0.5,0.1,1.1,0.3,1.5,0.4
		c0,0,0.7,0.2,1.7,0.5l0,0l0,0l0.4,0.1l0,0l0.1,0c-0.5,2-1.8,3.7-3.6,5.4c-1.4,1.1-3.8,2.9-5.6,3.9c-0.4,0.2-0.8,0.5-1.2,0.7l-0.1,0
		l-0.2,0.1l-0.1,0.1l-0.1,0.1l-0.2,0.1l-0.2,0.1l-0.1,0.1l-0.1,0l-0.2,0.1l-0.2,0.1l-0.1,0.1l0,0l-0.1,0.1l-0.1,0.1l-0.3,0.1
		l-0.2,0.1l-0.1,0.1l-0.1,0l-0.2,0.1l-0.2,0.1l-0.3,0.1l-0.1,0.1l-0.2,0.1l-0.2,0.1l-0.1,0l-0.1,0l-0.2,0.1l-0.2,0.1l0,0l0,0
		l-0.3,0.1l0,0l-0.1,0l0,0l-0.1,0.1l-0.1,0.1l-0.2,0.1l-0.2,0.1l-0.1,0.1l-0.1,0l-0.1,0l-0.2,0.1l-0.2,0.1l-0.2,0.1l-0.4,0.1
		l-0.4,0.1l-0.1,0l0,0l-0.1,0l-0.1,0l-0.1,0l-0.2,0.1l-0.1,0l-0.1,0l0,0l-0.3,0.1l-0.1,0l-0.4,0.1l-0.1,0l-0.2,0l-0.1,0l0,0l-0.1,0
		l-0.4,0.1l0,0l-0.1,0l-0.4,0.1l-0.2,0l0,0l0,0l0,0l-0.1,0l-0.1,0c-0.2,0-0.4,0.1-0.5,0.1l-0.4,0.1l-0.2,0l-0.3,0.1l-0.1,0l-0.1,0
		l-0.2,0l-0.1,0l0,0l0,0l-0.2,0l-0.2,0l-0.3,0l-0.3,0l-0.1,0l-0.2,0l-0.2,0l-0.3,0l-0.3,0l0,0c-0.2,0-0.4,0-0.6,0l-0.4,0l-0.2,0
		l-0.2,0l-0.3,0l-0.4,0l0-0.1l-0.2-0.3l0-0.1l-0.1-0.3l0,0l0.1,0.1l-0.1-0.1v0l-0.1-0.2l-0.1-0.2l0-0.1l-0.2-0.4l-0.1-0.2l0-0.1l0,0
		l0,0l-0.1-0.3l0,0.1l-0.1-0.3l-0.1-0.3l0,0l0-0.1l0,0l0-0.1l0-0.1l-0.1-0.2l-0.1-0.3l0,0l0,0l0,0l0,0l0,0l0-0.3l0-0.1l0-0.1l0-0.2
		v0l0,0l0,0c0-0.2,0-0.5,0-0.7l0,0.1l0-0.2l0-0.2v0.1c0-0.4,0-0.7,0.1-1l0-0.2l0-0.1l0-0.2l0,0.1c0.1-0.5,0.2-1.1,0.4-1.6l0,0l0-0.1
		C890.9,702.4,900.4,701.3,900.4,701.3"/>
	<polygon id="XMLID_16_" fill-rule="evenodd" clip-rule="evenodd" fill="#B4C8DA" points="302.4,837.7 302.5,837.9 302.5,838.1 
		302.5,838.3 302.5,838.5 302.5,838.7 302.6,838.9 302.6,839 302.4,837.4 	"/>
	<path id="XMLID_15_" fill-rule="evenodd" clip-rule="evenodd" fill="#FFFFFF" d="M359.7,838.9c-0.6,3.7-3.4,7.3-8.3,10.2
		c-0.3,0.2-0.7,0.4-1,0.6c-0.1,0.1-0.2,0.1-0.4,0.2c-0.2,0.1-0.5,0.2-0.7,0.4c-0.1,0.1-0.3,0.1-0.4,0.2c-0.2,0.1-0.4,0.2-0.7,0.3
		c-0.2,0.1-0.3,0.1-0.5,0.2c-0.2,0.1-0.5,0.2-0.7,0.3l-0.3,0.1c-0.3,0.1-0.6,0.2-0.9,0.3l-0.2,0.1c-0.4,0.1-0.7,0.2-1.1,0.4
		l-0.3,0.1c-0.2,0.1-0.5,0.1-0.7,0.2c-0.3,0.1-0.6,0.2-0.9,0.2c-0.2,0-0.4,0.1-0.5,0.1c-0.3,0.1-0.6,0.1-1,0.2
		c-0.2,0-0.3,0.1-0.5,0.1c-0.3,0.1-0.6,0.1-0.9,0.2c-0.2,0-0.3,0.1-0.5,0.1c-0.4,0.1-0.8,0.1-1.2,0.2l-0.2,0
		c-0.5,0.1-0.9,0.1-1.4,0.2l-0.3,0c-0.4,0-0.7,0.1-1.1,0.1c-0.2,0-0.3,0-0.5,0c-0.3,0-0.6,0-0.9,0.1c-0.2,0-0.4,0-0.6,0
		c-0.3,0-0.5,0-0.8,0c-0.2,0-0.4,0-0.5,0c-0.3,0-0.6,0-0.9,0c-0.2,0-0.4,0-0.6,0c-0.3,0-0.6,0-0.8,0c-0.2,0-0.4,0-0.5,0
		c-0.3,0-0.6,0-1,0c-0.2,0-0.4,0-0.6,0c-0.3,0-0.6,0-0.9-0.1c-0.2,0-0.5,0-0.7-0.1l-0.3,0c-0.4,0-0.8-0.1-1.2-0.2l-0.2,0
		c-0.3-0.1-0.7-0.1-1-0.2l-0.3-0.1c-0.2,0-0.4-0.1-0.7-0.1c-0.3,0-0.5-0.1-0.8-0.1c-0.2,0-0.4-0.1-0.6-0.1c-0.2-0.1-0.5-0.1-0.7-0.2
		c-0.2-0.1-0.4-0.1-0.6-0.2c-0.2-0.1-0.5-0.1-0.7-0.2c-0.2-0.1-0.4-0.1-0.6-0.2c-0.2-0.1-0.5-0.1-0.7-0.2c-0.2-0.1-0.5-0.2-0.7-0.2
		l-0.3-0.1c-0.4-0.1-0.7-0.3-1.1-0.4l-0.2-0.1c-0.3-0.1-0.6-0.2-0.9-0.4l-0.3-0.1c-0.3-0.1-0.7-0.3-1-0.5l-0.1-0.1
		c-0.3-0.1-0.6-0.3-0.9-0.4l-0.3-0.1c-0.3-0.2-0.6-0.3-1-0.5c-0.1-0.1-0.3-0.2-0.4-0.3l-0.3-0.2l-0.2-0.1l-0.3-0.2l-0.2-0.2
		l-0.3-0.2l-0.2-0.2l-0.2-0.2l-0.2-0.2l-0.2-0.2l-0.2-0.2l-0.2-0.2l-0.2-0.2l-0.2-0.2l-0.2-0.2l-0.2-0.2l-0.2-0.2
		c-0.2-0.1-0.3-0.3-0.4-0.4l-0.1-0.1l-0.3-0.3l-0.1-0.1c-0.1-0.1-0.2-0.2-0.3-0.4l-0.1-0.1c-0.1-0.1-0.2-0.3-0.4-0.4l-0.1-0.1
		l-0.2-0.3l-0.1-0.2l-0.2-0.2l-0.1-0.2l-0.2-0.3l-0.1-0.2l-0.2-0.3l-0.1-0.1l-0.1-0.2l-0.1-0.2l-0.1-0.3l-0.1-0.1
		c-0.1-0.1-0.1-0.3-0.2-0.4l0-0.1c0-0.1-0.1-0.2-0.1-0.3l-0.1-0.2l-0.1-0.2l-0.1-0.2l-0.1-0.2l0-0.2l-0.1-0.2l0-0.2l0-0.2l0-0.2
		l0-0.2l6.9,79.5c0,1.9,0.2,3.3,0.5,4.6l0,0c0,0.6,0.2,1.2,0.7,1.8c1,1.8,2.5,2.8,4.6,3.4l0.1,0c4.2,2,9.8,3,15.8,3
		c6,0,11.7-1.1,15.8-3c3.4-1.6,5.4-3.6,5.4-5.3l0,0c0.4-1.2,0.6-2.7,0.6-4.7L359.7,838.9z"/>
	<path id="XMLID_14_" fill-rule="evenodd" clip-rule="evenodd" fill="#D2A764" d="M301.9,837.3l0,0.2l0,0.2l0,0.2l0,0.2l0,0.2l0,0.2
		l0,0.2l0,0.2l0,0.2l0,0.2l0.1,0.2l0,0.2l0.1,0.2l0.1,0.2l0.1,0.2l0.1,0.2c0,0.1,0.1,0.2,0.1,0.4l0,0.1c0.1,0.1,0.1,0.3,0.2,0.4
		l0.1,0.1l0.1,0.3l0.1,0.2l0.1,0.2l0.1,0.1l0.2,0.3l0.1,0.2l0.2,0.3l0.1,0.2l0.2,0.3l0.1,0.2l0.2,0.3l0.1,0.1
		c0.1,0.1,0.2,0.3,0.4,0.4l0.1,0.1c0.1,0.1,0.2,0.2,0.3,0.4l0.1,0.1l0.3,0.3l0.1,0.1c0.1,0.1,0.3,0.3,0.4,0.4l0.2,0.2l0.2,0.2
		l0.2,0.2l0.2,0.2l0.2,0.2l0.2,0.2l0.2,0.2l0.2,0.2l0.2,0.2l0.2,0.2l0.2,0.2l0.3,0.2l0.2,0.2l0.3,0.2l0.2,0.2l0.3,0.2
		c0.1,0.1,0.3,0.2,0.4,0.3c0.3,0.2,0.6,0.4,1,0.5l0.3,0.1c0.3,0.2,0.6,0.3,0.9,0.4l0.1,0.1c0.3,0.2,0.7,0.3,1,0.5l0.3,0.1
		c0.3,0.1,0.6,0.2,0.9,0.4l0.2,0.1c0.4,0.1,0.7,0.3,1.1,0.4l0.3,0.1c0.2,0.1,0.5,0.2,0.7,0.2c0.2,0.1,0.5,0.1,0.7,0.2
		c0.2,0.1,0.4,0.1,0.6,0.2c0.2,0.1,0.5,0.1,0.7,0.2c0.2,0.1,0.4,0.1,0.6,0.2c0.2,0.1,0.5,0.1,0.7,0.2c0.2,0,0.4,0.1,0.6,0.1
		c0.3,0.1,0.5,0.1,0.8,0.2c0.2,0,0.5,0.1,0.7,0.1l0.3,0.1c0.3,0.1,0.7,0.1,1.1,0.2l0.2,0c0.4,0.1,0.8,0.1,1.2,0.2l0.3,0
		c0.3,0,0.5,0.1,0.8,0.1c0.3,0,0.6,0.1,0.9,0.1c0.2,0,0.4,0,0.6,0c0.3,0,0.7,0,1,0c0.2,0,0.4,0,0.6,0c0.3,0,0.6,0,0.9,0
		c0.2,0,0.4,0,0.6,0c0.3,0,0.6,0,0.9,0c0.2,0,0.4,0,0.5,0c0.3,0,0.6,0,0.8,0c0.2,0,0.4,0,0.6,0c0.3,0,0.6,0,0.9-0.1
		c0.2,0,0.3,0,0.5,0c0.4,0,0.7-0.1,1.1-0.1l0.3,0c0.5-0.1,0.9-0.1,1.4-0.2l0.2,0c0.4-0.1,0.8-0.1,1.2-0.2c0.2,0,0.3-0.1,0.5-0.1
		c0.3-0.1,0.6-0.1,0.9-0.2c0.2,0,0.3-0.1,0.5-0.1c0.3-0.1,0.7-0.1,1-0.2c0.2,0,0.4-0.1,0.5-0.1c0.3-0.1,0.6-0.2,0.9-0.2
		c0.3-0.1,0.5-0.1,0.8-0.2l0.3-0.1c0.4-0.1,0.7-0.2,1.1-0.4l0.2-0.1c0.3-0.1,0.6-0.2,0.9-0.3l0.3-0.1c0.2-0.1,0.5-0.2,0.7-0.3
		c0.2-0.1,0.3-0.1,0.5-0.2c0.2-0.1,0.5-0.2,0.7-0.3c0.1-0.1,0.3-0.1,0.4-0.2c0.2-0.1,0.5-0.2,0.7-0.4c0.1-0.1,0.2-0.1,0.4-0.2
		c0.4-0.2,0.7-0.4,1.1-0.6c5.8-3.3,8.7-7.7,8.6-12.1l0,13.4c0,8.8-9.9,13.4-17.1,15.4c-3.7,1-7.4,1.6-11.2,1.7
		c-4.7,0.1-9.4-0.5-13.9-1.9c-4.2-1.2-8.2-2.9-11.5-5.8c-2.7-2.4-4.8-5.6-4.8-9.2l0-13.4L301.9,837.3z"/>
	<path id="XMLID_13_" fill-rule="evenodd" clip-rule="evenodd" fill="#B4C8DA" d="M359.7,838.9c0.1-0.6,0.1-1.1,0.1-1.7L359.7,838.9
		z"/>
	<path id="XMLID_12_" fill-rule="evenodd" clip-rule="evenodd" fill="#CB974A" d="M310.5,827.2c11.5-6.6,30-6.6,41.4,0
		c11.4,6.6,11.3,17.4-0.1,24c-11.5,6.6-30,6.6-41.4,0C299,844.5,299,833.8,310.5,827.2"/>
	<path id="XMLID_11_" fill-rule="evenodd" clip-rule="evenodd" fill="#D2A764" d="M353.4,832.7l0,0.2l0,0.1l0,0.2l0,0.1l0,0.2l0,0.1
		l0,0.2l0,0.1l0,0.2l0,0.1l0,0.2l0,0.1l-0.1,0.2l0,0.1l-0.1,0.2l0,0.1l-0.1,0.3l0,0l-0.1,0.3l0,0.1l-0.1,0.2l-0.1,0.1l-0.1,0.2
		l-0.1,0.1l-0.1,0.2l-0.1,0.1l-0.1,0.2l-0.1,0.1l-0.1,0.2l-0.1,0.1l-0.1,0.2l-0.1,0.1c-0.1,0.1-0.2,0.2-0.3,0.3l0,0.1l-0.3,0.3
		l-0.1,0.1l-0.2,0.3l-0.1,0.1c-0.1,0.1-0.2,0.2-0.3,0.3l-0.1,0.1l-0.2,0.2l-0.1,0.1l-0.2,0.1l-0.2,0.1l-0.2,0.1l-0.2,0.1l-0.2,0.1
		l-0.2,0.1l-0.2,0.1l-0.2,0.1l-0.2,0.1l-0.2,0.1l-0.2,0.1l-0.2,0.1l-0.2,0.1l-0.3,0.2c-0.2,0.1-0.5,0.3-0.7,0.4L346,842
		c-0.2,0.1-0.4,0.2-0.7,0.3l-0.1,0c-0.3,0.1-0.5,0.2-0.8,0.4l-0.2,0.1c-0.2,0.1-0.5,0.2-0.7,0.3l-0.1,0.1c-0.3,0.1-0.5,0.2-0.8,0.3
		l-0.2,0.1c-0.2,0.1-0.4,0.1-0.6,0.2c-0.2,0.1-0.4,0.1-0.5,0.2c-0.2,0-0.3,0.1-0.5,0.1c-0.2,0.1-0.4,0.1-0.6,0.1
		c-0.2,0-0.3,0.1-0.5,0.1c-0.2,0-0.4,0.1-0.6,0.1c-0.2,0-0.3,0.1-0.5,0.1c-0.2,0-0.4,0.1-0.6,0.1c-0.2,0-0.3,0.1-0.5,0.1l-0.2,0
		c-0.3,0-0.5,0.1-0.8,0.1l-0.1,0c-0.3,0-0.6,0.1-0.9,0.1l-0.2,0c-0.2,0-0.4,0-0.6,0.1c-0.2,0-0.5,0-0.7,0.1c-0.2,0-0.3,0-0.5,0
		c-0.2,0-0.5,0-0.7,0c-0.1,0-0.3,0-0.4,0c-0.2,0-0.4,0-0.7,0c-0.2,0-0.3,0-0.5,0c-0.2,0-0.5,0-0.7,0c-0.1,0-0.3,0-0.4,0
		c-0.2,0-0.4,0-0.6,0c-0.1,0-0.3,0-0.4,0c-0.2,0-0.5,0-0.7,0c-0.1,0-0.3,0-0.4,0c-0.3,0-0.6-0.1-0.8-0.1l-0.2,0
		c-0.4,0-0.7-0.1-1.1-0.1l-0.2,0c-0.3,0-0.6-0.1-0.9-0.1c-0.1,0-0.3,0-0.4-0.1c-0.2,0-0.5-0.1-0.7-0.1c-0.1,0-0.2-0.1-0.4-0.1
		c-0.3-0.1-0.5-0.1-0.7-0.2c-0.1,0-0.3-0.1-0.4-0.1c-0.2-0.1-0.5-0.1-0.7-0.2c-0.2-0.1-0.4-0.1-0.6-0.2l-0.2-0.1
		c-0.3-0.1-0.6-0.2-0.8-0.3l-0.2-0.1c-0.2-0.1-0.5-0.2-0.7-0.3l-0.2-0.1c-0.2-0.1-0.4-0.1-0.5-0.2c-0.1-0.1-0.2-0.1-0.4-0.2
		c-0.2-0.1-0.3-0.2-0.5-0.2l-0.3-0.2c-0.2-0.1-0.4-0.2-0.6-0.3l-0.3-0.1c-0.3-0.1-0.5-0.3-0.8-0.4c-4.4-2.5-6.6-5.9-6.6-9.2l0,6
		c0,6.7,7.6,10.2,13,11.7c2.8,0.8,5.6,1.2,8.5,1.3c3.6,0.1,7.2-0.4,10.6-1.4c3.2-0.9,6.2-2.2,8.7-4.4c2-1.8,3.7-4.2,3.7-7l0-6
		L353.4,832.7z"/>
	<path id="XMLID_10_" fill-rule="evenodd" clip-rule="evenodd" fill="#CB974A" d="M346.8,823.2c-8.7-5-22.8-5-31.5,0
		c-8.7,5-8.6,13.2,0.1,18.2c8.7,5,22.8,5,31.5,0C355.6,836.4,355.6,828.3,346.8,823.2"/>
	<path id="XMLID_9_" fill-rule="evenodd" clip-rule="evenodd" fill="#A2742F" d="M322.7,823.3c0.7,0.4,0.7,1,0,1.4l-5.4,3.1
		c-0.7,0.4-1.8,0.4-2.4,0c-0.7-0.4-0.7-1,0-1.4l5.4-3.1C321,823,322,823,322.7,823.3"/>
	<path id="XMLID_8_" fill-rule="evenodd" clip-rule="evenodd" fill="#D2A764" d="M308.3,904.7l0.2,0.1l0.2,0.2l0.3,0.2l0.2,0.2
		l0.3,0.2l0.2,0.2l0.3,0.2c0.1,0.1,0.3,0.2,0.4,0.3c0.3,0.2,0.6,0.4,1,0.5l0.3,0.1c0.3,0.2,0.6,0.3,0.9,0.4l0.1,0.1
		c0.3,0.2,0.7,0.3,1,0.5l0.3,0.1c0.3,0.1,0.6,0.2,0.9,0.4l0.2,0.1c0.4,0.1,0.7,0.3,1.1,0.4l0.3,0.1c0.2,0.1,0.5,0.2,0.7,0.2
		c0.2,0.1,0.5,0.1,0.7,0.2c0.2,0.1,0.4,0.1,0.6,0.2c0.2,0.1,0.5,0.1,0.7,0.2c0.2,0.1,0.4,0.1,0.6,0.2c0.2,0.1,0.5,0.1,0.7,0.2
		c0.2,0,0.4,0.1,0.6,0.1c0.3,0.1,0.5,0.1,0.8,0.2c0.2,0,0.5,0.1,0.7,0.1l0.3,0.1c0.3,0.1,0.7,0.1,1.1,0.2l0.2,0
		c0.4,0.1,0.8,0.1,1.2,0.2l0.3,0c0.3,0,0.5,0.1,0.8,0.1c0.3,0,0.6,0.1,0.9,0.1c0.2,0,0.4,0,0.6,0c0.3,0,0.7,0,1,0c0.2,0,0.4,0,0.6,0
		c0.3,0,0.6,0,0.9,0c0.2,0,0.4,0,0.6,0c0.3,0,0.6,0,0.9,0c0.2,0,0.4,0,0.5,0c0.3,0,0.6,0,0.8,0c0.2,0,0.4,0,0.6,0
		c0.3,0,0.6,0,0.9-0.1c0.2,0,0.3,0,0.5,0c0.4,0,0.7-0.1,1.1-0.1l0.3,0c0.5-0.1,0.9-0.1,1.4-0.2l0.2,0c0.4-0.1,0.8-0.1,1.2-0.2
		c0.2,0,0.3-0.1,0.5-0.1c0.3-0.1,0.6-0.1,0.9-0.2c0.2,0,0.3-0.1,0.5-0.1c0.3-0.1,0.7-0.1,1-0.2c0.2,0,0.4-0.1,0.5-0.1
		c0.3-0.1,0.6-0.2,0.9-0.2c0.3-0.1,0.5-0.1,0.8-0.2l0.3-0.1c0.4-0.1,0.7-0.2,1.1-0.4l0.2-0.1c0.3-0.1,0.6-0.2,0.9-0.3l0.3-0.1
		c0.2-0.1,0.5-0.2,0.7-0.3c0.2-0.1,0.3-0.1,0.5-0.2c0.2-0.1,0.5-0.2,0.7-0.3c0.1-0.1,0.3-0.1,0.4-0.2c0.2-0.1,0.5-0.2,0.7-0.4
		c0.1-0.1,0.2-0.1,0.4-0.2c0.4-0.2,0.7-0.4,1.1-0.6c0.8-0.5,1.6-1,2.3-1.5l2.8-32.7c-3.5,3.6-9.1,5.9-13.5,7.1
		c-3.7,1-7.4,1.6-11.2,1.7c-4.7,0.1-9.4-0.5-13.9-1.9c-4.2-1.2-8.2-2.9-11.5-5.8c-0.5-0.4-0.9-0.8-1.3-1.3L308.3,904.7z"/>
	<path id="XMLID_7_" fill-rule="evenodd" clip-rule="evenodd" fill="#A2742F" d="M333.3,888c0,0.1-0.1,0.1-0.1,0.2
		c-0.1,0.2-0.2,0.4-0.3,0.6c-0.1,0.2-0.2,0.4-0.3,0.6c-0.1,0.2-0.2,0.4-0.2,0.6c-0.1,0.2-0.1,0.4-0.2,0.7c0,0.1,0,0.2,0,0.3
		c0,0.1,0,0.2,0,0.3c0,0.3,0,0.6,0.1,0.8c0.1,0.5,0.2,1,0.3,1.6c0.1,0.5,0.2,1.1,0.3,1.6c0.1,0.5,0.2,1.1,0.2,1.5c0,0.5,0,1-0.1,1.4
		c0,0.4-0.1,0.8-0.2,1.1c-0.1,0.3-0.2,0.6-0.3,0.8c-0.2,0.5-0.3,0.7-0.3,0.7s0.1-0.3,0.2-0.7c0-0.2,0.1-0.5,0.1-0.9
		c0-0.3,0.1-0.7,0-1.1c0-0.4-0.1-0.8-0.1-1.3c-0.1-0.5-0.2-0.9-0.4-1.4c-0.2-0.5-0.4-1-0.6-1.5c-0.2-0.5-0.4-1-0.6-1.6
		c-0.1-0.3-0.1-0.6-0.2-0.8c0-0.2,0-0.3-0.1-0.5c0-0.2,0-0.3,0-0.5c0-0.3,0-0.6,0.1-0.9c0-0.3,0.1-0.6,0.2-0.9
		c0.1-0.3,0.2-0.5,0.3-0.8l0-0.1c-2.9,0.5-5.1,3.7-5.1,7.5c0,4.2,2.6,7.6,5.9,7.6c3.3,0,5.9-3.4,5.9-7.6
		C337.9,891.8,335.9,888.8,333.3,888"/>
	<path id="XMLID_6_" fill-rule="evenodd" clip-rule="evenodd" fill="#44454A" d="M633,947.7h-6.5L554,906.1
		c-3.7-2.1-9.3-2.4-12.5-0.5l-26,15h-7.1v6.1c0,1.4,1.1,2.8,3,4l76,43.6c3.7,2.1,9.3,2.4,12.5,0.5l30.9-17.9
		c1.5-0.9,2.2-2.1,2.1-3.3h0V947.7z"/>
	<path id="XMLID_5_" fill-rule="evenodd" clip-rule="evenodd" fill="#5F636C" d="M629.9,943.8c3.7,2.1,4.1,5.4,0.9,7.2l-30.9,17.9
		c-3.2,1.8-8.8,1.6-12.5-0.5l-76-43.6c-3.7-2.1-4.1-5.4-0.9-7.2l31-17.9c3.2-1.8,8.8-1.6,12.5,0.5L629.9,943.8z"/>
	<path id="XMLID_4_" fill-rule="evenodd" clip-rule="evenodd" fill="#44454A" d="M598.9,968.3c-2.7,1.6-7.5,1.4-10.6-0.4l-76-43.6
		c-3.1-1.8-3.5-4.6-0.8-6.1l31-17.9c2.7-1.6,7.5-1.4,10.6,0.4l76,43.6c3.1,1.8,3.5,4.6,0.8,6.1L598.9,968.3z"/>
	<polygon id="XMLID_3_" fill-rule="evenodd" clip-rule="evenodd" fill="#EDEEEE" points="620.3,941.1 582.8,962.8 521.3,927.5 
		558.7,905.9 	"/>
	<polygon id="XMLID_2_" fill-rule="evenodd" clip-rule="evenodd" fill="#FFFFFF" points="558.7,905.9 582.8,962.8 521.3,927.5 	"/>
</g>
</svg>
